<svg width="48" height="48" viewBox="0 0 48 48" fill="none" xmlns="http://www.w3.org/2000/svg">
<path d="M29.702 30.15V32.15C29.702 32.511 29.8207 32.8096 30.058 33.046C30.2953 33.282 30.5953 33.4 30.958 33.4C31.3127 33.4 31.6087 33.282 31.846 33.046C32.0833 32.8096 32.202 32.511 32.202 32.15V30.15H34.252C34.7337 30.15 35.1375 29.9918 35.4635 29.6755C35.7892 29.3591 35.952 28.9673 35.952 28.5V19.55C35.952 19.0683 35.7892 18.6646 35.4635 18.339C35.1375 18.013 34.7337 17.85 34.252 17.85H27.952C27.4773 17.85 27.0253 18.013 26.596 18.339C26.1667 18.6646 25.952 19.0683 25.952 19.55V28.5C25.952 28.9673 26.1667 29.3591 26.596 29.6755C27.0253 29.9918 27.4773 30.15 27.952 30.15H29.702ZM14.56 25.7H19.56V28.9C19.56 29.261 19.6785 29.5596 19.9155 29.796C20.1528 30.032 20.4528 30.15 20.8155 30.15C21.1705 30.15 21.4667 30.032 21.704 29.796C21.9413 29.5596 22.06 29.261 22.06 28.9V19.1C22.06 18.739 21.9393 18.4403 21.698 18.204C21.4567 17.968 21.1567 17.85 20.798 17.85C20.4393 17.85 20.1433 17.968 19.91 18.204C19.6767 18.4403 19.56 18.739 19.56 19.1V23.2H14.56V19.1C14.56 18.739 14.4393 18.4403 14.198 18.204C13.9567 17.968 13.6567 17.85 13.298 17.85C12.9393 17.85 12.6433 17.968 12.41 18.204C12.1767 18.4403 12.06 18.739 12.06 19.1V28.9C12.06 29.261 12.1785 29.5596 12.4155 29.796C12.6528 30.032 12.9508 30.15 13.3095 30.15C13.6685 30.15 13.9667 30.032 14.204 29.796C14.4413 29.5596 14.56 29.261 14.56 28.9V25.7ZM28.452 27.65V20.35H33.452V27.65H28.452ZM7.10749 40.299C6.18749 40.299 5.38982 39.9611 4.71449 39.2855C4.03882 38.6101 3.70099 37.8125 3.70099 36.8925V11.1075C3.70099 10.1841 4.03882 9.38363 4.71449 8.70596C5.38982 8.02796 6.18749 7.68896 7.10749 7.68896H40.8925C41.8158 7.68896 42.6163 8.02796 43.294 8.70596C43.972 9.38363 44.311 10.1841 44.311 11.1075V36.8925C44.311 37.8125 43.972 38.6101 43.294 39.2855C42.6163 39.9611 41.8158 40.299 40.8925 40.299H7.10749ZM7.10749 36.8925H40.8925V11.1075H7.10749V36.8925Z" fill="#01010A"/>
</svg>
