<svg width="48" height="48" viewBox="0 0 48 48" fill="none" xmlns="http://www.w3.org/2000/svg">
<path d="M9.10755 40.299C8.18755 40.299 7.38988 39.9611 6.71455 39.2855C6.03888 38.6101 5.70105 37.8125 5.70105 36.8925V7.10746C5.70105 6.18413 6.03888 5.38363 6.71455 4.70596C7.38988 4.02796 8.18755 3.68896 9.10755 3.68896H38.8925C39.8159 3.68896 40.6164 4.02796 41.294 4.70596C41.972 5.38363 42.311 6.18413 42.311 7.10746V16.5685C42.311 17.0455 42.1442 17.4403 41.8106 17.753C41.4766 18.0653 41.0684 18.2215 40.586 18.2215C40.1034 18.2215 39.7004 18.0578 39.377 17.7305C39.054 17.4031 38.8925 16.9991 38.8925 16.5185V7.10746H9.10755V27.14H16.3021C16.8417 27.14 17.2887 27.198 17.6431 27.314C17.997 27.43 18.2797 27.6806 18.4911 28.066C18.8957 28.7473 19.411 29.3423 20.0371 29.851C20.663 30.3596 21.3444 30.745 22.0811 31.007C22.3634 31.1036 22.5945 31.2768 22.7745 31.5265C22.9545 31.7758 23.0446 32.0453 23.0446 32.335C23.0446 32.864 22.8346 33.2911 22.4146 33.6165C21.9949 33.9418 21.5231 34.0051 20.9991 33.8065C20.0451 33.4955 19.1684 33.034 18.3691 32.422C17.5694 31.8096 16.8797 31.049 16.3001 30.14H9.10755V36.8925H21.3415C21.8212 36.8925 22.225 37.057 22.5531 37.386C22.8807 37.715 23.0446 38.1211 23.0446 38.6045C23.0446 39.0878 22.8807 39.491 22.5531 39.814C22.225 40.1373 21.8212 40.299 21.3415 40.299H9.10755ZM34.4565 39.827C33.7059 39.6096 33.0219 39.3113 32.4046 38.932C31.7872 38.5526 31.253 38.1543 30.802 37.737L29.333 38.4185C29.1497 38.4975 28.9534 38.5163 28.7441 38.475C28.5351 38.4336 28.3702 38.3203 28.2495 38.135L27.2136 36.4835C27.0929 36.2981 27.0512 36.1101 27.0886 35.9195C27.1259 35.7288 27.2359 35.555 27.4186 35.398L28.7446 34.3335C28.5699 33.7208 28.4826 33.0463 28.4826 32.31C28.4826 31.5736 28.5699 30.9008 28.7446 30.2915L27.4186 29.215C27.2279 29.066 27.1159 28.8941 27.0826 28.6995C27.0492 28.5048 27.0929 28.3168 27.2136 28.1355L28.2495 26.434C28.3702 26.2526 28.5351 26.1393 28.7441 26.094C28.9534 26.0486 29.1497 26.0655 29.333 26.1445L30.802 26.826C31.253 26.442 31.7872 26.0623 32.4046 25.687C33.0219 25.3116 33.7059 25.0153 34.4565 24.798L34.649 23.022C34.6874 22.798 34.7832 22.6216 34.9365 22.493C35.0899 22.3643 35.2717 22.3 35.482 22.3H37.232C37.4427 22.3 37.6245 22.3643 37.7775 22.493C37.9309 22.6216 38.0227 22.7985 38.0531 23.0235L38.2575 24.798C39.0082 25.0153 39.6924 25.3116 40.3101 25.687C40.9274 26.0623 41.4614 26.442 41.912 26.826L43.369 26.1445C43.5527 26.0655 43.749 26.0486 43.958 26.094C44.167 26.1393 44.3359 26.2526 44.4646 26.434L45.4891 28.1355C45.6174 28.3168 45.6649 28.5048 45.6315 28.6995C45.5982 28.8941 45.4862 29.066 45.2955 29.215L43.9696 30.2965C44.1362 30.9091 44.2196 31.5836 44.2196 32.32C44.2196 33.0563 44.1362 33.7275 43.9696 34.3335L45.2955 35.398C45.4862 35.555 45.5982 35.733 45.6315 35.932C45.6649 36.131 45.6276 36.3175 45.5196 36.4915L44.4671 38.136C44.3367 38.3206 44.167 38.4356 43.958 38.481C43.749 38.5263 43.5527 38.5055 43.369 38.4185L41.912 37.737C41.4614 38.1543 40.9274 38.5526 40.3101 38.932C39.6924 39.3113 39.0082 39.6096 38.2575 39.827L38.0531 41.5585C38.0227 41.7788 37.9309 41.9533 37.7775 42.082C37.6245 42.2106 37.4427 42.275 37.232 42.275H35.482C35.2717 42.275 35.0899 42.2106 34.9365 42.082C34.7832 41.9533 34.6874 41.7793 34.649 41.56L34.4565 39.827ZM36.338 37.3215C37.7727 37.3215 38.9696 36.8416 39.9286 35.882C40.8872 34.9223 41.3666 33.7216 41.3666 32.28C41.3666 30.8383 40.8872 29.6401 39.9286 28.6855C38.9696 27.7308 37.7707 27.2535 36.3321 27.2535C34.8934 27.2535 33.6947 27.7313 32.736 28.687C31.7774 29.6426 31.2981 30.8413 31.2981 32.283C31.2981 33.7246 31.7777 34.9248 32.737 35.8835C33.6964 36.8421 34.8967 37.3215 36.338 37.3215Z" fill="#01010A"/>
</svg>
