<svg width="16" height="16" viewBox="0 0 16 16" fill="none" xmlns="http://www.w3.org/2000/svg">
<path d="M5.45333 8.00799L6.7905 6.67065C6.88794 6.57332 6.93733 6.45521 6.93866 6.31632C6.93989 6.17743 6.89333 6.05799 6.799 5.95799C6.696 5.85799 6.57461 5.80799 6.43483 5.80799C6.29494 5.80799 6.17461 5.85799 6.07383 5.95799L4.42566 7.60615C4.31244 7.72304 4.25583 7.85782 4.25583 8.01049C4.25583 8.16315 4.31244 8.29627 4.42566 8.40982L6.07383 10.058C6.17383 10.158 6.29327 10.208 6.43216 10.208C6.57105 10.208 6.69272 10.158 6.79716 10.058C6.89272 9.95799 6.93989 9.84132 6.93866 9.70799C6.93733 9.57465 6.88666 9.45799 6.78666 9.35799L5.45333 8.00799ZM10.5633 8.00799L9.2095 9.36199C9.11205 9.45932 9.06266 9.57465 9.06133 9.70799C9.06011 9.84132 9.10666 9.95799 9.201 10.058C9.304 10.158 9.42538 10.208 9.56516 10.208C9.70505 10.208 9.82539 10.158 9.92616 10.058L11.591 8.40982C11.7042 8.29527 11.7608 8.16165 11.7608 8.00899C11.7608 7.85632 11.7042 7.72204 11.591 7.60615L9.94283 5.95799C9.84283 5.85799 9.72616 5.80799 9.59283 5.80799C9.4595 5.80799 9.34061 5.85799 9.23616 5.95799C9.14061 6.05799 9.09344 6.1781 9.09466 6.31832C9.096 6.45854 9.14666 6.57732 9.24666 6.67465L10.5633 8.00799ZM3.03583 14.0997C2.72361 14.0997 2.45627 13.9885 2.23383 13.7662C2.0115 13.5437 1.90033 13.2764 1.90033 12.9642V3.03582C1.90033 2.72249 2.0115 2.45427 2.23383 2.23115C2.45627 2.00793 2.72361 1.89632 3.03583 1.89632H6.35283C6.42439 1.50743 6.61416 1.18799 6.92216 0.937988C7.23005 0.687988 7.58933 0.562988 8 0.562988C8.41066 0.562988 8.76994 0.687988 9.07783 0.937988C9.38583 1.18799 9.57561 1.50743 9.64716 1.89632H12.9642C13.2775 1.89632 13.5457 2.00793 13.7688 2.23115C13.9921 2.45427 14.1037 2.72249 14.1037 3.03582V12.9642C14.1037 13.2764 13.9921 13.5437 13.7688 13.7662C13.5457 13.9885 13.2775 14.0997 12.9642 14.0997H3.03583ZM3.03583 12.9642H12.9642V3.03582H3.03583V12.9642ZM8 2.74049C8.16477 2.74049 8.30716 2.68049 8.42716 2.56049C8.54716 2.44049 8.60716 2.2981 8.60716 2.13332C8.60716 1.96854 8.54716 1.82615 8.42716 1.70615C8.30716 1.58615 8.16477 1.52615 8 1.52615C7.83522 1.52615 7.69283 1.58615 7.57283 1.70615C7.45283 1.82615 7.39283 1.96854 7.39283 2.13332C7.39283 2.2981 7.45283 2.44049 7.57283 2.56049C7.69283 2.68049 7.83522 2.74049 8 2.74049Z" fill="#01010A"/>
</svg>
