<?xml version="1.0" encoding="UTF-8"?>
<svg version="1.1" xmlns="http://www.w3.org/2000/svg" width="3568" height="637">
<path d="M0 0 C1.1821995 0.00138269 1.1821995 0.00138269 2.38828182 0.00279331 C3.74081554 0.00073132 3.74081554 0.00073132 5.12067318 -0.00137234 C6.6160738 0.00402058 6.6160738 0.00402058 8.14168453 0.00952244 C9.18546261 0.00937641 10.22924068 0.00923038 11.3046484 0.00907993 C14.77305295 0.00977956 18.24140454 0.0175743 21.70979977 0.02539158 C24.1073367 0.02725558 26.50487401 0.02867957 28.90241146 0.0296793 C35.22684936 0.03350589 41.55126446 0.04333737 47.87569332 0.05438328 C54.32364754 0.06459438 60.77160543 0.06917627 67.21956539 0.0742197 C79.88168452 0.08495951 92.54378781 0.10184664 105.20589352 0.12304783 C98.86335294 19.41721471 98.86335294 19.41721471 95.33479977 28.33007908 C94.98390285 29.22670765 94.63300594 30.12333622 94.27147579 31.04713535 C93.10894187 34.01199741 91.93904244 36.97388137 90.76839352 39.93554783 C89.91656665 42.09976513 89.06476077 44.26399069 88.21297359 46.42822361 C66.88244302 100.51730603 44.92918558 154.36618569 23.0044775 208.21655369 C22.08041958 210.48683555 21.1569366 212.7573515 20.23396969 215.02807713 C10.30969668 239.44346935 10.30969668 239.44346935 5.20589352 251.12304783 C5.78331295 251.01234959 6.36073238 250.90165134 6.95564938 250.78759861 C47.20087893 243.12677547 96.63166255 236.19225774 132.73714352 260.31445408 C143.55657686 268.24071616 149.95730115 279.77952296 152.79183102 292.81836033 C156.84914433 325.20031378 144.23501224 354.36883357 132.51299191 383.75586033 C129.17395109 392.12844011 125.87925951 400.51620173 122.63948727 408.92773533 C122.25232037 409.93286671 121.86515347 410.93799809 121.46625423 411.97358799 C120.67475952 414.02870549 119.88327092 416.08382534 119.09178829 418.13894749 C101.13180289 464.73410786 82.76863841 511.53123662 60.20589352 556.12304783 C41.92765056 556.29143617 23.67914161 555.79828558 5.41170406 555.25421238 C2.30365689 555.16265081 -0.80449659 555.07503715 -3.91265583 554.98737621 C-19.88228121 554.53554272 -35.84303806 554.04192237 -51.79410648 553.12304783 C-49.4880852 544.23368639 -45.88363407 535.95436784 -42.23160648 527.56054783 C-41.56474935 526.01659227 -40.89825484 524.47248005 -40.23209476 522.92822361 C-35.62674223 512.2704014 -30.95393519 501.64220001 -26.27698612 491.01565647 C17.5175691 406.22336509 17.5175691 406.22336509 35.20589352 315.12304783 C20.79818508 307.59008352 7.82780534 306.49856975 -7.79410648 311.12304783 C-23.71143697 317.21030638 -31.07679736 325.73168091 -37.89566898 340.89257908 C-39.07886129 343.56979232 -40.2494979 346.25237812 -41.41910648 348.93554783 C-42.06779742 350.415143 -42.71673004 351.89463223 -43.36588383 353.37402439 C-50.80252437 370.34722861 -58.12742174 387.36937374 -65.45957279 404.38789463 C-68.8526276 412.26234512 -72.25788211 420.13145408 -75.66910648 427.99804783 C-76.18448978 429.18680515 -76.69987309 430.37556248 -77.23087406 431.60034275 C-78.24680831 433.94340267 -79.26283866 436.28642093 -80.27896976 438.62939548 C-82.88902514 444.64774748 -85.49801515 450.66656114 -88.10660648 456.68554783 C-88.37044132 457.29428745 -88.63427616 457.90302708 -88.906106 458.53021336 C-93.19869163 468.43495122 -97.48473569 478.34251001 -101.76856327 488.25103855 C-103.79866179 492.94651356 -105.82918156 497.64180643 -107.85970402 502.33709812 C-109.45406654 506.02390067 -111.04821513 509.7107953 -112.64176273 513.39795017 C-114.08934705 516.74726387 -115.5378424 520.09618221 -116.98697758 523.44482517 C-117.75273006 525.21490397 -118.51758458 526.98537115 -119.28238773 528.75586033 C-123.38885824 538.24169651 -127.5953397 547.67582257 -131.79410648 557.12304783 C-167.43410648 557.12304783 -203.07410648 557.12304783 -239.79410648 557.12304783 C-237.74173325 550.96592813 -235.61072672 545.11196867 -233.01285648 539.20117283 C-232.64723606 538.36014011 -232.28161564 537.5191074 -231.90491581 536.65258884 C-231.11648393 534.8393795 -230.32646793 533.02685829 -229.53501225 531.21496677 C-227.38563806 526.29247595 -225.25003166 521.36402132 -223.11441898 516.43554783 C-222.67272373 515.41664463 -222.23102848 514.39774143 -221.77594852 513.34796238 C-217.17411187 502.71753842 -212.66364031 492.04919008 -208.16910648 481.37304783 C-207.37354806 479.48404433 -206.57797513 477.59504694 -205.78238773 475.70605564 C-204.60056322 472.89995822 -203.41874127 470.09385979 -202.23716068 467.28765965 C-198.27839415 457.88997886 -194.287761 448.50594239 -190.29410648 439.12304783 C-182.29752245 420.32986049 -174.35029351 401.51600727 -166.41246891 382.69793797 C-163.61155642 376.05848088 -160.80717055 369.42049859 -158.00113773 362.78320408 C-156.41110775 359.02156401 -154.82126771 355.25984374 -153.23160648 351.49804783 C-152.83963078 350.57047672 -152.44765507 349.64290562 -152.04380131 348.6872263 C-146.56106568 335.70965005 -141.11062327 322.71890972 -135.68079472 309.71911716 C-124.779243 283.62235884 -113.62464075 257.63893155 -102.38269901 231.68731785 C-96.47320711 218.04375863 -90.61582752 204.37816039 -84.76615238 190.70886326 C-75.79345756 169.74212153 -66.76713849 148.79988383 -57.67166996 127.88610935 C-50.72186153 111.90421726 -43.83042578 95.89846021 -36.98160648 79.87304783 C-29.63548152 62.68434125 -22.19619289 45.53936087 -14.65226078 28.43652439 C-14.30486347 27.64879642 -13.95746616 26.86106846 -13.59954166 26.04946995 C-12.93081062 24.5333462 -12.2617451 23.01736992 -11.592309 21.50155735 C-8.97815932 15.57132081 -6.43518015 9.61257544 -3.92081547 3.63940525 C-2.36384872 0.16212329 -2.36384872 0.16212329 0 0 Z " fill="#E21D23" transform="translate(673.7941064834595,41.876952171325684)"/>
<path d="M0 0 C26.42184365 0.52762185 52.83594709 1.23886495 79.25 2.0625 C79.98959332 2.08555962 80.72918663 2.10861923 81.49119186 2.13237762 C90.66089081 2.41855633 99.83049059 2.7078071 109 3 C108.54753794 8.50932584 108.03329624 13.75034274 106.390625 19.0546875 C106.05587158 20.14313965 105.72111816 21.2315918 105.3762207 22.35302734 C104.81874146 24.09640381 104.81874146 24.09640381 104.25 25.875 C104.05304535 26.49691223 103.8560907 27.11882446 103.65316772 27.75958252 C88.07052766 76.88415001 67.69215932 124.41978949 48 172 C47.4962384 173.21768066 47.4962384 173.21768066 46.9822998 174.45996094 C44.51125029 180.43255998 42.03768489 186.40411364 39.5625 192.375 C39.20665833 193.23341492 38.85081665 194.09182983 38.48419189 194.97625732 C35.01279395 203.3486371 31.53827882 211.71963793 28.03904724 220.08042908 C19.00509832 241.66865773 10.18938282 263.34237738 1.47794724 285.06243896 C0.64301376 287.14261991 -0.19349804 289.22215907 -1.03048706 291.30151367 C-6.87641793 305.83145365 -12.60161361 320.3962313 -18.00390625 335.09765625 C-18.44169403 336.28634811 -18.87948181 337.47503998 -19.33053589 338.69975281 C-24.82751704 353.79647077 -30.17225364 369.15415533 -33 385 C-12.75206987 374.8424005 4.94431697 360.20282823 22.06640625 345.50390625 C24.80368383 343.16756147 27.57743014 340.88852568 30.375 338.625 C36.74013872 333.44235439 42.90896467 328.03968006 49.09912109 322.65087891 C56.51622205 316.20926105 63.99598726 309.84000894 71.5 303.5 C73.11628704 302.13276888 74.73232913 300.7652494 76.34814453 299.39746094 C77.46566814 298.45204191 78.58385109 297.5074018 79.70263672 296.56347656 C86.30876615 290.98413904 92.77723789 285.3146207 99.0625 279.375 C116.24029163 263.22619295 131.13458251 255.75134944 155.125 255.875 C156.07060791 255.87693359 157.01621582 255.87886719 157.99047852 255.88085938 C172.33128179 255.9626057 186.66860903 256.50622166 201 257 C194.62539313 267.88670221 184.7077782 276.91226092 175.1875 285.09375 C172.64488601 287.30945648 170.16889802 289.59098592 167.6875 291.875 C163.17096163 295.99906676 158.50866984 299.87936865 153.75 303.71875 C150.91900422 306.06718968 148.20616402 308.50909902 145.5 311 C141.08359856 315.05983645 136.53836478 318.89323821 131.87109375 322.66015625 C128.77013368 325.18733323 125.72824907 327.7761512 122.6875 330.375 C117.63798829 334.67963733 112.47002364 338.8034875 107.23120117 342.87451172 C103.2378768 345.99106381 99.34728897 349.2053344 95.5 352.5 C90.99489386 356.35482783 86.41342148 360.08835054 81.75 363.75 C81.16661865 364.21841309 80.5832373 364.68682617 79.98217773 365.16943359 C77.4048075 367.22123536 74.96010986 369.02253499 72.08203125 370.6484375 C69.32050178 372.26682221 67.83035947 373.36652931 66 376 C65.85405473 378.68533988 65.90690727 380.96133065 66.17271423 383.60804749 C66.23299488 384.35834482 66.29327553 385.10864216 66.35538286 385.88167578 C66.55127145 388.25653228 66.77418769 390.62782089 67 393 C67.12710097 394.45822991 67.25304422 395.91656126 67.37774849 397.37499809 C67.77940327 401.96844962 68.2257164 406.55715147 68.67407227 411.14624023 C68.84197897 412.88929658 69.00960347 414.63238013 69.17697144 416.37548828 C69.62660185 421.0503578 70.08004658 425.72485007 70.53418851 430.39928317 C71.01037015 435.30811802 71.48277377 440.21731642 71.95555115 445.1264801 C72.84909563 454.39921055 73.74567767 463.67164441 74.64352316 472.9439593 C76.25529341 489.59039052 77.86154632 506.23735481 79.4671101 522.88438565 C80.03042171 528.72376024 80.59498326 534.56301229 81.16059697 540.40216434 C81.51076884 544.01862889 81.8602006 547.6351647 82.20946884 551.25171661 C82.37199799 552.93282112 82.53486134 554.61389335 82.69807625 556.29493141 C82.92002944 558.58129892 83.14082936 560.86777493 83.36134338 563.15428162 C83.48540841 564.43561698 83.60947344 565.71695234 83.73729801 567.03711605 C84 570 84 570 84 572 C47.37 572 10.74 572 -27 572 C-29.12949433 565.61151702 -30.08871334 559.62735734 -30.9921875 552.984375 C-31.16692596 551.70479919 -31.34166443 550.42522339 -31.521698 549.10687256 C-33.36804223 535.20137356 -34.2834691 521.24801401 -35.125 507.25 C-35.43657471 502.27581657 -35.75341217 497.30197167 -36.0703125 492.328125 C-36.14622116 491.12755966 -36.22212982 489.92699432 -36.30033875 488.69004822 C-36.82181497 480.52466519 -37.39270821 472.36441792 -38.02734375 464.20703125 C-38.10344879 463.19912537 -38.17955383 462.19121948 -38.25796509 461.152771 C-39.11678965 450.41649567 -40.73067559 439.96175695 -45 430 C-48.82644788 429.57471967 -48.82644788 429.57471967 -50.5703125 431.30078125 C-69.01363534 455.16588493 -77.2755581 486.8228421 -87.1640625 514.88635254 C-91.10453907 526.05616699 -95.06772636 537.18843859 -99.625 548.125 C-99.98996582 549.00406006 -100.35493164 549.88312012 -100.73095703 550.78881836 C-103.88744963 558.15421051 -107.55192403 565.32788604 -112 572 C-115.05666569 572.24475805 -117.90375296 572.29614019 -120.95703125 572.21484375 C-122.35064629 572.19562111 -122.35064629 572.19562111 -123.77241516 572.17601013 C-125.79225418 572.14620481 -127.81199947 572.10943271 -129.831604 572.06658936 C-132.99884663 572.00002424 -136.16584016 571.95271643 -139.33349609 571.91064453 C-146.11860667 571.8163781 -152.90297128 571.69140587 -159.6875 571.5625 C-160.88247101 571.54043488 -162.07744202 571.51836975 -163.30862427 571.49563599 C-182.87702652 571.13335803 -202.43936123 570.66058841 -222 570 C-221.26078337 564.91829129 -219.31354136 560.33666949 -217.44921875 555.5859375 C-216.90071259 554.17410439 -216.90071259 554.17410439 -216.34112549 552.73374939 C-215.12726343 549.61258697 -213.90744878 546.49378786 -212.6875 543.375 C-211.8292141 541.17223381 -210.97122769 538.96935091 -210.11352539 536.76635742 C-207.41553002 529.84168664 -204.70876954 522.92046214 -202 516 C-201.57195068 514.90612976 -201.14390137 513.81225952 -200.70288086 512.6852417 C-195.69895125 499.89937028 -190.68413936 487.11778424 -185.66523743 474.33778381 C-181.3931264 463.45775823 -177.13303513 452.57304061 -172.875 441.6875 C-172.13419651 439.79378234 -171.39339247 437.90006489 -170.65258789 436.00634766 C-169.54593978 433.17737166 -168.43931377 430.34838703 -167.33274841 427.51937866 C-164.70197492 420.79378691 -162.06999999 414.06866614 -159.4375 407.34375 C-152.28285572 389.06593089 -145.13293889 370.78630182 -138 352.5 C-130.10924011 332.27091642 -122.19713478 312.05021178 -114.28222656 291.83056641 C-110.8950256 283.17734059 -107.5090489 274.52363573 -104.12298584 265.8699646 C-102.24870794 261.07995655 -100.3743499 256.28997987 -98.5 251.5 C-97.74999962 249.58333348 -96.99999962 247.66666682 -96.25 245.75 C-37.74999997 96.24999992 -37.74999997 96.24999992 -36.62521362 93.37554932 C-35.87449848 91.4570528 -35.12378641 89.53855507 -34.37307739 87.62005615 C-32.50904418 82.85637644 -30.64495922 78.09271699 -28.78076172 73.32910156 C-25.27496703 64.37052225 -21.76970896 55.41173397 -18.26617432 46.45227051 C-16.61644529 42.23356683 -14.9664364 38.01497263 -13.31640625 33.79638672 C-12.53208677 31.79090753 -11.74790349 29.78537507 -10.96386719 27.77978516 C-9.87469716 24.99367879 -8.78505188 22.20775871 -7.6953125 19.421875 C-7.37942169 18.61345154 -7.06353088 17.80502808 -6.73806763 16.97210693 C-4.51995675 11.30347836 -2.26747853 5.64905382 0 0 Z " fill="#E21D23" transform="translate(1360,26)"/>
<path d="M0 0 C6.62338667 5.16861606 12.77071024 10.88498082 18.875 16.6484375 C19.5045459 17.24100342 20.1340918 17.83356934 20.78271484 18.4440918 C21.97826216 19.57547311 23.16658042 20.71456146 24.34619141 21.86254883 C27.38053336 24.75739648 29.96047874 26.77613018 34 28 C40.93677931 17.7180733 45.53701082 7.33556412 49.046875 -4.54296875 C51.36782984 -12.35241105 51.36782984 -12.35241105 54.5625 -15.625 C62.4783247 -18.79132988 70.80075025 -19.29629829 79.24487305 -19.22705078 C80.20232925 -19.22734283 81.15978546 -19.22763489 82.14625549 -19.22793579 C85.26817322 -19.22655759 88.38984343 -19.21106841 91.51171875 -19.1953125 C93.69318003 -19.19157699 95.874643 -19.18873256 98.05610657 -19.18673706 C103.76558152 -19.17914296 109.47495286 -19.15953118 115.18438721 -19.1373291 C121.02330118 -19.11677922 126.86223208 -19.10771588 132.70117188 -19.09765625 C144.13415982 -19.07628094 155.56707125 -19.04219658 167 -19 C165.99448659 -13.01371981 164.95678437 -7.20449058 162.953125 -1.45703125 C162.53385742 -0.25256348 162.11458984 0.9519043 161.68261719 2.19287109 C161.20627716 3.52484347 160.72867694 4.85636566 160.25 6.1875 C159.99303345 6.90802551 159.73606689 7.62855103 159.47131348 8.37091064 C147.66393933 41.39402699 134.265619 73.85348493 121.2421875 106.41015625 C120.80969193 107.49135239 120.37719635 108.57254852 119.93159485 109.68650818 C115.55097877 120.63665495 111.16815204 131.58590609 106.77661514 142.5316782 C98.50762041 163.14290687 90.26679457 183.76359819 82.1953125 204.453125 C81.87438251 205.27536497 81.55345253 206.09760494 81.22279739 206.94476128 C70.9036501 233.40299997 61.13285012 259.98253224 52.265625 286.96484375 C52.04962646 287.62042267 51.83362793 288.27600159 51.61108398 288.95144653 C50.63265664 291.94894616 49.74371778 294.93664423 49 298 C38.47004426 298.02352818 27.94009511 298.04111548 17.4101181 298.05181217 C12.51672922 298.0569549 7.62335875 298.0638884 2.72998047 298.07543945 C-20.86960189 298.12971364 -44.41739524 297.93953335 -68 297 C-68 291.06 -68 285.12 -68 279 C-69.12792969 279.6290625 -70.25585938 280.258125 -71.41796875 280.90625 C-101.62660103 297.45278471 -138.5684196 310.02385876 -173.1887207 300.97705078 C-195.38089932 294.32299847 -213.89801079 279.24233935 -225.09130859 259.02929688 C-230.48951967 248.77636808 -234.28678495 238.24722284 -237 227 C-237.3196875 225.74445313 -237.639375 224.48890625 -237.96875 223.1953125 C-248.06172 178.20262216 -235.1417559 126.70648101 -213.98681641 86.87207031 C-213.00333174 85.00632058 -212.05180144 83.12701169 -211.10546875 81.2421875 C-202.70061378 64.71019947 -191.6392716 50.03427576 -179.1484375 36.37109375 C-177.23772896 34.26236633 -175.39699852 32.11219895 -173.5625 29.9375 C-130.96263263 -18.44515479 -54.49904027 -39.65663298 0 0 Z M-80.890625 94.2578125 C-101.54744584 119.09679883 -111.71738064 149.846818 -110 182 C-108.61976665 192.93659478 -104.01016464 203.66127394 -95.16796875 210.5625 C-85.04981521 217.27147388 -73.79565717 217.40590373 -62.14453125 215.3046875 C-46.70162096 211.29660391 -35.32364502 202.4795331 -27.10913086 188.86645508 C-21.49952418 178.58494759 -17.35777576 167.99906466 -13.375 157 C-12.42642588 154.40988727 -11.47473156 151.82094163 -10.52210999 149.23231506 C-9.90215582 147.54708214 -9.2838365 145.86124683 -8.66722107 144.17478943 C-6.76875897 139.00293776 -4.76793237 133.88460444 -2.68359375 128.78515625 C-0.62364138 123.6931469 1.0676384 118.78437249 2.3125 113.4375 C2.61800781 112.15746094 2.92351562 110.87742187 3.23828125 109.55859375 C6.1201909 96.09490305 6.98329983 81.96993969 0.125 69.625 C-3.34007134 65.34461776 -6.77497505 62.71962847 -12 61 C-38.41671822 58.32094603 -64.13777522 74.93375454 -80.890625 94.2578125 Z " fill="#E21D23" transform="translate(1060,299)"/>
<path d="M0 0 C3.27052062 0.02535287 6.5112733 0.12812812 9.77734375 0.27734375 C11.40469704 0.34730812 11.40469704 0.34730812 13.06492615 0.41868591 C30.91332031 1.22466642 48.74799254 2.33100795 66.58294678 3.38647461 C71.60532787 3.68318574 76.62786644 3.97720715 81.65039062 4.27148438 C91.43374581 4.84508876 101.21692865 5.42157614 111 6 C111 6.66 111 7.32 111 8 C112.98 8.495 112.98 8.495 115 9 C114.97151271 15.59480769 113.70454859 21.43167736 111.4296875 27.59765625 C111.16508728 28.33052856 110.90048706 29.06340088 110.62786865 29.81848145 C109.75959358 32.21519938 108.88080711 34.60786152 108 37 C107.55850616 38.2050972 107.55850616 38.2050972 107.10809326 39.43453979 C105.18883913 44.67206932 103.25421877 49.90380719 101.31359863 55.13345337 C99.43522633 60.19592865 97.56154979 65.26014209 95.6875 70.32421875 C95.2991095 71.37349045 94.91071899 72.42276215 94.51055908 73.50382996 C90.40494045 84.59983363 86.32610308 95.7056272 82.25 106.8125 C75.6796575 124.71313247 69.0946084 142.608293 62.5 160.5 C54.96969151 180.9308804 47.45150809 201.36617156 39.94726562 221.80664062 C39.2591238 223.68099297 38.57097301 225.55534202 37.8828125 227.4296875 C37.55722351 228.31650208 37.23163452 229.20331665 36.8961792 230.11700439 C33.60449248 239.08059707 30.30326036 248.04066703 27 257 C31.14764776 258.22610486 35.23764882 259.31437553 39.49609375 260.0703125 C40.46611328 260.24433594 41.43613281 260.41835938 42.43554688 260.59765625 C43.92151367 260.85869141 43.92151367 260.85869141 45.4375 261.125 C46.45521484 261.30675781 47.47292969 261.48851562 48.52148438 261.67578125 C51.01376818 262.12041404 53.50659057 262.56173154 56 263 C55.31288935 268.9713187 53.88439419 274.5968387 52.25 280.375 C52.01023437 281.26960938 51.77046875 282.16421875 51.5234375 283.0859375 C49.03038272 291.9272864 45.79738091 299.74870265 38 305 C27.22744095 309.89661775 13.5473831 308.10925472 2 308 C1.89623047 308.79776855 1.79246094 309.59553711 1.68554688 310.41748047 C0.58637403 318.24621259 -1.10666948 325.59737055 -3.5 333.125 C-4.02775024 334.80360107 -4.02775024 334.80360107 -4.56616211 336.51611328 C-11.33654436 357.71922868 -19.66708584 378.23306387 -28.28240967 398.73379517 C-36.75075727 418.88829084 -44.87718598 439.15663237 -52.19580078 459.76074219 C-53.42667749 463.18806494 -54.71191188 466.59380953 -56 470 C-57.06734375 469.86722656 -58.1346875 469.73445313 -59.234375 469.59765625 C-85.30950582 466.4578586 -110.6017143 464.07154554 -133.0234375 480.546875 C-146.80641357 491.90607312 -154.38103913 506.50453042 -156.625 524.15380859 C-157.88986814 537.70370856 -155.87950559 551.9077122 -153.39355469 565.21972656 C-152.97445145 568.18048813 -152.93505592 571.01367299 -153 574 C-172.34995447 574.17898211 -191.66296423 573.62329408 -211 573 C-210.42493567 569.08058326 -209.60851675 565.5040339 -208.27612305 561.77563477 C-207.74121246 560.26746185 -207.74121246 560.26746185 -207.19549561 558.7288208 C-206.80484924 557.643974 -206.41420288 556.5591272 -206.01171875 555.44140625 C-205.60165588 554.29057556 -205.19159302 553.13974487 -204.769104 551.95404053 C-203.64807923 548.81197646 -202.5224303 545.67164691 -201.39445114 542.53207779 C-200.44294939 539.88117788 -199.49527788 537.22891522 -198.54753208 534.57667065 C-191.25943236 514.18400063 -183.86723349 493.82940136 -176.44726562 473.484375 C-170.63202937 457.53230567 -164.8879428 441.55593058 -159.1875 425.5625 C-157.53783766 420.93486829 -155.88814085 416.30724889 -154.23828125 411.6796875 C-153.82111343 410.50959137 -153.40394562 409.33949524 -152.97413635 408.13394165 C-148.12397244 394.53541891 -143.25155918 380.9448944 -138.37197876 367.35690308 C-137.39375394 364.63279639 -136.41618807 361.90845493 -135.43930054 359.18386841 C-129.06781844 341.41501131 -122.59383909 323.68755154 -116 306 C-116.86327408 306.0267984 -116.86327408 306.0267984 -117.74398804 306.05413818 C-128.00158168 306.36106316 -136.51345438 306.48112911 -146 302 C-144.60424906 293.87926727 -142.41688511 286.01013842 -140.11376953 278.11083984 C-139.49372803 275.97842982 -138.88529781 273.84291476 -138.27734375 271.70703125 C-137.88350637 270.34615317 -137.48899998 268.98546848 -137.09375 267.625 C-136.73990234 266.40039062 -136.38605469 265.17578125 -136.02148438 263.9140625 C-135 261 -135 261 -133 259 C-130.4913634 258.65093808 -128.06475246 258.41514145 -125.54296875 258.25390625 C-124.02277346 258.13753949 -122.50259157 258.02099748 -120.98242188 257.90429688 C-118.58645066 257.73138668 -116.19026477 257.56268977 -113.79370117 257.39819336 C-111.47999822 257.23608374 -109.16789343 257.05821027 -106.85546875 256.87890625 C-106.14384079 256.83504288 -105.43221283 256.7911795 -104.69902039 256.74598694 C-100.40248714 256.40564045 -97.36689948 255.75025686 -94 253 C-92.70743658 250.80544526 -92.70743658 250.80544526 -91.9765625 248.2109375 C-91.65204102 247.2219043 -91.32751953 246.23287109 -90.99316406 245.21386719 C-90.66541992 244.15329102 -90.33767578 243.09271484 -90 242 C-89.300194 239.82529068 -88.59962939 237.65082537 -87.8984375 235.4765625 C-87.50519287 234.24647461 -87.11194824 233.01638672 -86.70678711 231.74902344 C-80.4121448 212.18445803 -73.21519753 192.96430769 -65.9375 173.75 C-65.66000916 173.01736309 -65.38251831 172.28472618 -65.09661865 171.52988815 C-62.50166049 164.68045099 -59.90339549 157.83227007 -57.30264282 150.98503113 C-51.51203854 135.73607876 -45.78193962 120.46465434 -40.06124878 105.18936157 C-38.38389225 100.71067736 -36.70490559 96.23260541 -35.02563477 91.75463867 C-29.92372615 78.1486232 -24.82686265 64.54074089 -19.74008179 50.92906189 C-17.76122667 45.63402772 -15.78064157 40.33964117 -13.79961586 35.04541874 C-12.20052378 30.77137728 -10.60387901 26.49643221 -9.00909042 22.22078323 C-8.26854983 20.23666149 -7.52677568 18.25300647 -6.78442383 16.26956177 C-5.88192662 13.85821943 -4.98143247 11.44612615 -4.08325195 9.03317261 C-3.68887939 7.98138824 -3.29450684 6.92960388 -2.88818359 5.84594727 C-2.54548431 4.9283815 -2.20278503 4.01081573 -1.84970093 3.06544495 C-1 1 -1 1 0 0 Z " fill="#E21D23" transform="translate(1705,23)"/>
<path d="M0 0 C4.92987073 0.00570846 9.85968758 0.00228771 14.7895565 -0.00343609 C47.43711111 -0.03560035 80.12547697 0.13681336 112.71948242 2.19287109 C114.27152862 2.28529374 115.82361257 2.37708439 117.37573242 2.46826172 C120.99076952 2.68188247 124.60526013 2.90332549 128.21948242 3.13037109 C127.75039644 10.17376815 126.12068155 15.73081456 123.34448242 22.19287109 C122.94302002 23.14766357 122.54155762 24.10245605 122.12792969 25.08618164 C90.53146142 99.55533904 90.53146142 99.55533904 74.21948242 121.13037109 C70.75046136 122.28671145 67.4788118 122.48712917 63.8603363 122.68676758 C63.11094015 122.72894881 62.36154399 122.77113005 61.58943886 122.8145895 C52.05131036 123.30164147 42.51356069 123.25429079 32.96582031 123.22802734 C30.88729895 123.22610313 28.80877712 123.22464171 26.73025513 123.22360229 C22.2867094 123.2204642 17.84318315 123.21423027 13.39964485 123.20553589 C6.34670795 123.19188297 -0.70622276 123.18609147 -7.75917053 123.18139648 C-24.01345231 123.16940708 -40.26771749 123.14740119 -56.52198792 123.12516785 C-71.40916591 123.10489382 -86.29633807 123.0868394 -101.18352705 123.07695293 C-107.03370147 123.07282595 -112.88385699 123.0665892 -118.73402214 123.0552063 C-162.0132179 121.91371685 -162.0132179 121.91371685 -204.78051758 127.13037109 C-205.87686523 127.37762939 -205.87686523 127.37762939 -206.99536133 127.62988281 C-228.16861275 132.58835005 -248.86982165 141.96669327 -264.69458008 157.13427734 C-266.47230792 158.83543639 -268.27489616 160.31719751 -270.21801758 161.81787109 C-285.98493632 175.23652534 -296.9141775 196.72276385 -302.78051758 216.13037109 C-302.49966309 215.56229736 -302.21880859 214.99422363 -301.92944336 214.40893555 C-296.12482516 202.7608447 -290.30483209 192.01082655 -281.78051758 182.13037109 C-281.00708008 181.23060547 -280.23364258 180.33083984 -279.43676758 179.40380859 C-277.25998365 176.93628982 -275.03554388 174.52633653 -272.78051758 172.13037109 C-272.18239258 171.46779297 -271.58426758 170.80521484 -270.96801758 170.12255859 C-249.47030517 147.23490788 -214.93062375 132.25095317 -183.73852539 131.00927734 C-169.19912181 130.59398447 -154.95281073 130.61728373 -140.78051758 134.13037109 C-139.57540527 134.42838623 -139.57540527 134.42838623 -138.34594727 134.73242188 C-126.36854485 137.80384566 -115.57352454 142.13326502 -104.78051758 148.13037109 C-103.6899707 148.71947266 -102.59942383 149.30857422 -101.47583008 149.91552734 C-94.68120729 153.71048842 -88.67593035 158.06088572 -82.78051758 163.13037109 C-81.56428711 164.16291016 -81.56428711 164.16291016 -80.32348633 165.21630859 C-53.64401994 188.49256746 -37.20582871 219.99608272 -32.78051758 255.13037109 C-30.63236108 297.49498017 -40.5040709 334.67189139 -68.96948242 366.91870117 C-93.86859053 394.47697275 -129.01957801 410.09008117 -165.90185547 412.25488281 C-205.03164596 413.77825272 -241.45614272 400.09201804 -270.17553711 373.64501953 C-297.80918109 347.56666126 -312.32786184 311.80211333 -313.78051758 274.13037109 C-314.05991801 257.66772104 -310.82206294 242.0065762 -306.78051758 226.13037109 C-308.10051758 227.78037109 -309.42051758 229.43037109 -310.78051758 231.13037109 C-313.09301758 231.13037109 -313.09301758 231.13037109 -315.78051758 230.13037109 C-324.64597286 215.09140039 -319.27964267 192.17454017 -315.40942383 176.31005859 C-306.2729027 141.03744615 -291.50517826 105.54945858 -269.78051758 76.13037109 C-269.29099609 75.46279785 -268.80147461 74.79522461 -268.29711914 74.10742188 C-261.72521114 65.23375865 -254.42098051 57.09011479 -246.78051758 49.13037109 C-246.29470215 48.61732422 -245.80888672 48.10427734 -245.30834961 47.57568359 C-233.85011884 35.50874628 -221.03663582 25.68404204 -206.78051758 17.13037109 C-205.95422852 16.62634766 -205.12793945 16.12232422 -204.27661133 15.60302734 C-191.80847596 8.66222102 -176.31781824 7.39729169 -162.34301758 6.00537109 C-161.16237732 5.88263321 -161.16237732 5.88263321 -159.95788574 5.75741577 C-142.9285767 3.98844972 -125.87935534 2.93044741 -108.78051758 2.13037109 C-107.19231201 2.05157715 -107.19231201 2.05157715 -105.57202148 1.97119141 C-70.41636422 0.24270009 -35.19110281 -0.04111734 0 0 Z M-268.78051758 187.13037109 C-292.72887756 214.96266137 -302.10336958 248.8713488 -299.78051758 285.13037109 C-298.45169401 298.05963544 -295.03540175 310.27219103 -289.78051758 322.13037109 C-289.49724609 322.78312012 -289.21397461 323.43586914 -288.92211914 324.10839844 C-284.00399311 335.25162212 -277.42788471 344.68982822 -269.78051758 354.13037109 C-269.10633789 354.96697266 -268.4321582 355.80357422 -267.73754883 356.66552734 C-263.82644682 361.31052034 -259.493035 365.31006867 -254.78051758 369.13037109 C-253.91813477 369.83033203 -253.05575195 370.53029297 -252.16723633 371.25146484 C-238.67352684 381.7871487 -224.11949056 389.07965266 -207.78051758 394.13037109 C-207.06154297 394.3562793 -206.34256836 394.5821875 -205.60180664 394.81494141 C-184.72975769 401.05642228 -158.51608895 400.64567165 -137.78051758 394.13037109 C-136.99966797 393.88899414 -136.21881836 393.64761719 -135.41430664 393.39892578 C-101.14431718 382.48797599 -74.69066109 358.98086407 -58.19311523 327.23999023 C-43.55034043 298.01023941 -41.47245699 263.01477744 -51.46801758 232.00537109 C-62.55273628 199.6585924 -85.17879847 172.78053466 -115.79199219 157.48486328 C-168.75954923 132.00585325 -228.72955305 144.44273246 -268.78051758 187.13037109 Z M-304.78051758 219.13037109 C-303.78051758 221.13037109 -303.78051758 221.13037109 -303.78051758 221.13037109 Z M-305.78051758 222.13037109 C-304.78051758 224.13037109 -304.78051758 224.13037109 -304.78051758 224.13037109 Z " fill="#E21D23" transform="translate(516.780517578125,41.86962890625)"/>
<path d="M0 0 C5.08874812 38.16561089 -7.27446643 78.1003069 -24 112 C-24.47421387 112.97146973 -24.94842773 113.94293945 -25.43701172 114.94384766 C-37.40972628 139.29104572 -51.93646691 161.53372638 -70.515625 181.328125 C-72.57968367 183.54796168 -74.55129421 185.80511216 -76.5 188.125 C-99.1870608 214.02249393 -130.10978485 224.15327035 -163.53881836 226.78564453 C-169.85585091 227.17686655 -176.17831444 227.34445622 -182.50488281 227.50268555 C-184.83674213 227.56153449 -187.16834292 227.62702945 -189.5 227.69335938 C-214.11840776 228.3614383 -238.75081148 227.89901846 -263.3724544 227.62907338 C-267.27033443 227.58645836 -271.16822192 227.54454677 -275.06610924 227.50260442 C-284.31890622 227.40300563 -293.57168852 227.30211608 -302.82446289 227.20043945 C-311.17405604 227.10871056 -319.52366435 227.01855669 -327.87329102 226.92993164 C-373.25220864 226.44797122 -418.62807003 225.95396146 -464 225 C-462.27576637 219.00003067 -459.44086565 213.60833157 -456.64819336 208.0534668 C-455.83086479 206.41596214 -455.83086479 206.41596214 -454.99702454 204.74537659 C-453.50833132 201.76492835 -452.01609925 198.78630543 -450.52211452 195.80850959 C-448.95844049 192.68996839 -447.39900325 189.56930966 -445.83900452 186.44892883 C-443.22148677 181.21482828 -440.60088199 175.98228288 -437.97827148 170.75073242 C-434.9435998 164.69714886 -431.91314233 158.64147088 -428.88506597 152.58458585 C-425.97172348 146.75729141 -423.05610063 140.93114129 -420.13919258 135.10563087 C-418.89735689 132.62549516 -417.65620486 130.14501907 -416.41557121 127.66428185 C-414.68692099 124.20816874 -412.95487139 120.75376597 -411.22241211 117.29956055 C-410.70550812 116.26529938 -410.18860413 115.23103821 -409.65603638 114.16543579 C-409.18635941 113.23034683 -408.71668243 112.29525787 -408.23277283 111.33183289 C-407.823329 110.51462108 -407.41388517 109.69740927 -406.99203396 108.85543346 C-406 107 -406 107 -405 106 C-401.83805855 105.9063341 -398.69818948 105.87804353 -395.53604126 105.8921814 C-394.54497242 105.89279076 -393.55390357 105.89340012 -392.53280234 105.89402795 C-389.22838262 105.89749743 -385.92403128 105.90836152 -382.61962891 105.91943359 C-380.29482898 105.92379649 -377.97002844 105.92784241 -375.64522743 105.93158531 C-354.76416807 105.97204351 -333.88335466 106.08809882 -313.00273335 106.22495353 C-305.03200304 106.27716627 -297.06125558 106.32512559 -289.09048462 106.37069702 C-287.91008775 106.37745819 -286.72969088 106.38421935 -285.51352441 106.3911854 C-283.1081582 106.40494205 -280.7027919 106.41868287 -278.29742551 106.43240809 C-262.36995208 106.52332197 -246.4425104 106.6165062 -230.51513672 106.72363281 C-219.62715547 106.7968315 -208.73915716 106.8623346 -197.85107768 106.91914403 C-192.13944746 106.94923397 -186.42789722 106.98297295 -180.71635056 107.02626419 C-112.55622992 108.31267015 -112.55622992 108.31267015 -54 77 C-53.48727539 76.5364209 -52.97455078 76.0728418 -52.44628906 75.59521484 C-36.68914948 61.15826803 -26.40047872 43.2786706 -17.69140625 23.921875 C-6.90543174 0 -6.90543174 0 0 0 Z " fill="#E21D23" transform="translate(487,363)"/>
<path d="M0 0 C11.18749003 -0.03046668 22.37497523 -0.05092801 33.5625 -0.0625 C34.79516602 -0.06378403 34.79516602 -0.06378403 36.05273438 -0.06509399 C61.04825086 -0.08811521 86.01885502 0.05920367 111 1 C109.05988503 10.87556561 106.55103572 20.40879903 103.5 30 C103.27135254 30.7239798 103.04270508 31.44795959 102.80712891 32.19387817 C76.31631072 115.81277014 44.45794595 198.46081498 11.25 279.625 C10.92906372 280.41171082 10.60812744 281.19842163 10.27746582 282.00897217 C8.50933588 286.33475199 6.71092484 290.64564255 4.87133789 294.94152832 C4.27694484 296.34573819 3.69390064 297.75479291 3.12084961 299.16784668 C2.26560953 301.27630866 1.37867127 303.36879768 0.484375 305.4609375 C-0.01868164 306.67313965 -0.52173828 307.8853418 -1.04003906 309.13427734 C-3 312 -3 312 -6.49609375 313.37084961 C-15.11688059 314.91877099 -23.49575766 315.27776298 -32.25 315.3125 C-32.95455322 315.31611542 -33.65910645 315.31973083 -34.38500977 315.32345581 C-60.9421718 315.37661413 -87.59998651 312.71391313 -114 310 C-113.47084705 303.27370884 -112.09595287 297.47571721 -109.88671875 291.1171875 C-109.40493668 289.69709129 -109.40493668 289.69709129 -108.91342163 288.24830627 C-107.84824298 285.12030212 -106.76856645 281.99754579 -105.6875 278.875 C-104.92425973 276.65117043 -104.16116044 274.42729246 -103.39819336 272.20336914 C-94.99356587 247.79810558 -86.12850441 223.56003752 -77.22387695 199.33380127 C-75.25224718 193.96314549 -73.29074785 188.58879581 -71.328125 183.21484375 C-61.40726219 156.0713291 -51.29570119 129.00349325 -41 102 C-40.60192139 100.95507385 -40.20384277 99.91014771 -39.79370117 98.83355713 C-30.90675109 75.50990262 -21.99000816 52.19922515 -12.625 29.0625 C-12.17613434 27.95044189 -12.17613434 27.95044189 -11.71820068 26.81591797 C-10.87088462 24.72065045 -10.01858121 22.62749531 -9.1640625 20.53515625 C-8.69436035 19.384104 -8.2246582 18.23305176 -7.74072266 17.04711914 C-5.32129749 11.29410602 -2.6348824 5.65649938 0 0 Z " fill="#E21D23" transform="translate(1784,283)"/>
<path d="M0 0 C1.43891703 0.00307501 2.87783708 0.00493784 4.3167572 0.00567627 C7.32302419 0.01024649 10.32901849 0.02451898 13.33520508 0.046875 C17.09628073 0.07477422 20.85714215 0.08597729 24.61831093 0.09067535 C43.37828349 0.11661673 62.09591423 0.51147518 80.83984375 1.328125 C80.69177527 3.07907633 80.54052223 4.82975854 80.38793945 6.58032227 C80.30405472 7.55526138 80.22016998 8.5302005 80.13374329 9.53468323 C79.74580033 13.22198421 79.00188685 16.69442349 78.02734375 20.265625 C77.70648804 21.44825928 77.70648804 21.44825928 77.37915039 22.65478516 C63.87401177 70.78654853 44.17654503 117.26737817 25.69657898 163.63134766 C21.43372145 174.33297888 17.21257337 185.05079584 13.01104736 195.77664185 C12.24398131 197.73424126 11.47606884 199.69150928 10.70721436 201.64840698 C6.58089155 212.15188897 2.54233987 222.66676071 -1.16015625 233.328125 C-27.68556231 233.48872032 -54.20055882 233.21225245 -80.72265625 232.828125 C-81.54852234 232.81616718 -82.37438843 232.80420937 -83.22528076 232.79188919 C-93.53698029 232.64213703 -103.84859958 232.48741936 -114.16015625 232.328125 C-113.4858435 225.52026671 -112.28094167 219.22493833 -110.41015625 212.640625 C-109.95334473 211.03272095 -109.95334473 211.03272095 -109.48730469 209.39233398 C-97.93089745 169.68734386 -82.48028828 131.08165504 -67.1522522 92.71765137 C-66.84548553 91.94973267 -66.53871887 91.18181396 -66.22265625 90.390625 C-65.91870941 89.62995728 -65.61476257 88.86928955 -65.30160522 88.08557129 C-57.87484525 69.45181633 -51.45755867 50.48786486 -45.2265625 31.42578125 C-44.95336182 30.59336914 -44.68016113 29.76095703 -44.39868164 28.90332031 C-43.93639946 27.48697941 -43.48016544 26.06863396 -43.03295898 24.64746094 C-40.11109413 15.60330641 -36.23410485 8.69806383 -28.16015625 3.328125 C-18.95462415 0.13279313 -9.63833891 -0.09237746 0 0 Z " fill="#E21D23" transform="translate(1908.16015625,30.671875)"/>
<path d="M0 0 C1.54884337 1.47165021 3.09124077 2.95013563 4.625 4.4375 C5.22570313 4.96472656 5.82640625 5.49195313 6.4453125 6.03515625 C21.69407045 19.90088731 30.56671426 42.3504347 31.7512207 62.59472656 C32.65822555 89.76456052 26.19331038 115.73301232 7.625 136.4375 C6.82449219 137.33210937 6.02398438 138.22671875 5.19921875 139.1484375 C-8.25221754 153.37706788 -23.27263473 160.67169066 -42.328125 164.5703125 C-43.20162598 164.75150635 -44.07512695 164.9327002 -44.97509766 165.11938477 C-47.1078525 165.56139894 -49.24135116 165.9998216 -51.375 166.4375 C-46.68684841 168.87943902 -41.99512719 171.3143418 -37.30029297 173.7434082 C-35.71113246 174.56678339 -34.12288061 175.39191527 -32.53564453 176.21899414 C1.3077635 194.56389708 1.3077635 194.56389708 38.625 195.4375 C42.62890625 199.83203125 42.62890625 199.83203125 43.625 201.4375 C42.625 204.4375 42.625 204.4375 40.7265625 205.71875 C20.47594522 215.68435346 -0.1169055 213.79705392 -21.125 206.9296875 C-39.46333091 200.60508474 -56.5088925 191.50358696 -73.40820312 182.08496094 C-76.51955622 180.357228 -79.64185136 178.6504744 -82.765625 176.9453125 C-94.76330557 170.35925196 -106.31707783 163.51258474 -117.375 155.4375 C-117.46251499 159.95821021 -117.5155661 164.4787007 -117.5625 169 C-117.58763672 170.27681641 -117.61277344 171.55363281 -117.63867188 172.86914062 C-117.85140941 182.13134834 -117.85140941 182.13134834 -114.375 190.4375 C-109.19915843 195.49758792 -103.33548568 195.09490106 -96.5 195.1875 C-95.43007812 195.21714844 -94.36015625 195.24679687 -93.2578125 195.27734375 C-90.63060838 195.34771529 -88.00280132 195.39491003 -85.375 195.4375 C-85.375 199.0675 -85.375 202.6975 -85.375 206.4375 C-113.755 206.4375 -142.135 206.4375 -171.375 206.4375 C-171.375 202.8075 -171.375 199.1775 -171.375 195.4375 C-163.785 195.4375 -156.195 195.4375 -148.375 195.4375 C-148.48250908 171.47190337 -148.59508097 147.50633655 -148.71433926 123.54079533 C-148.76958743 112.41286818 -148.82305547 101.28493783 -148.87231445 90.15698242 C-148.91525942 80.45643329 -148.96156312 70.75590696 -149.01187855 61.05539316 C-149.03839657 55.92037493 -149.06324723 50.78536097 -149.08407402 45.65031624 C-149.10374465 40.81342893 -149.12791872 35.97658469 -149.15549088 31.13973618 C-149.16480636 29.36809895 -149.17250105 27.59645232 -149.17841911 25.82480049 C-148.15787204 10.1890427 -148.15787204 10.1890427 -153.375 -3.5625 C-159.16856834 -6.94208153 -164.74075057 -7.15297843 -171.375 -7.5625 C-171.375 -11.1925 -171.375 -14.8225 -171.375 -18.5625 C-153.885 -18.5625 -136.395 -18.5625 -118.375 -18.5625 C-117.88 -12.1275 -117.88 -12.1275 -117.375 -5.5625 C-116.55 -6.07039063 -115.725 -6.57828125 -114.875 -7.1015625 C-103.32320044 -14.04958036 -90.89425311 -19.88868771 -77.375 -21.5625 C-76.41851563 -21.68367188 -75.46203125 -21.80484375 -74.4765625 -21.9296875 C-47.7207173 -24.63830393 -20.42286984 -18.16397666 0 0 Z M-102.43415833 -0.43977356 C-105.375 1.4375 -105.375 1.4375 -108.69902039 3.14961243 C-112.81706762 5.57602535 -116.02913357 8.21243186 -118.375 12.4375 C-120.64480523 21.22267671 -119.93346329 30.60154778 -119.69312119 39.60168624 C-119.61127533 43.18744955 -119.60417365 46.77338633 -119.58879089 50.35993958 C-119.54854915 57.1359713 -119.44211068 63.90924262 -119.31124753 70.68406421 C-119.16541337 78.40324839 -119.09433493 86.1225718 -119.02920687 93.84279287 C-118.89369838 109.70928831 -118.66537904 125.57303682 -118.375 141.4375 C-115.79122356 138.89643061 -113.48355719 136.38948007 -111.375 133.4375 C-110.78187012 133.7998877 -110.18874023 134.16227539 -109.57763672 134.53564453 C-88.6968139 147.2371011 -68.64471554 159.43268755 -43.375 153.4375 C-26.74874164 148.59224492 -13.20703888 137.72975022 -4.875 122.55078125 C-2.51120793 117.64468157 -0.80627386 112.68550417 0.625 107.4375 C0.83898438 106.68726563 1.05296875 105.93703125 1.2734375 105.1640625 C7.3952439 79.8783404 2.73822433 51.6917875 -10.375 29.4375 C-20.77559167 12.94367716 -34.33659709 -0.6212053 -53.375 -6.5625 C-54.04015625 -6.78550781 -54.7053125 -7.00851562 -55.390625 -7.23828125 C-70.50942652 -11.47962443 -89.2715469 -8.87663412 -102.43415833 -0.43977356 Z " fill="#E21D23" transform="translate(3321.375,380.5625)"/>
<path d="M0 0 C2.58183842 2.51563743 2.84319388 3.34994091 3.6875 6.6875 C5.18067236 11.87118358 7.87219693 13.85643903 12.34765625 16.67578125 C25.16413658 23.72403529 35.9892714 27.80550672 50.78710938 27.12109375 C57.96056081 26.94575418 61.41530324 28.59784622 66.75 33.5 C67.636875 34.44875 68.52375 35.3975 69.4375 36.375 C70.04980469 37.00535156 70.66210938 37.63570312 71.29296875 38.28515625 C76.46938017 43.78214688 81.09981557 49.64885768 85.625 55.6875 C86.52702148 56.85285278 86.52702148 56.85285278 87.44726562 58.04174805 C91.54092601 63.61869733 91.54092601 63.61869733 91.0625 67.1171875 C89.261507 69.61952873 87.29932266 71.88427896 85.25 74.1875 C81.76409415 78.94025426 81.01498525 81.72413254 81.578125 87.5703125 C81.66913231 88.60151466 81.66913231 88.60151466 81.76197815 89.65354919 C81.96587681 91.89662279 82.20100654 94.13514868 82.4375 96.375 C82.58571112 97.92555887 82.73242282 99.47626174 82.87768555 101.02709961 C83.26008887 105.02327737 83.67813682 109.01472793 84.11206055 113.00561523 C84.37807396 115.46593057 84.63355105 117.92720589 84.88867188 120.38867188 C85.05926318 121.97923465 85.2304645 123.56973214 85.40234375 125.16015625 C85.51339699 126.2446682 85.51339699 126.2446682 85.62669373 127.35108948 C86.42648878 135.50147302 86.42648878 135.50147302 90.27734375 142.44921875 C91.31568359 143.24779297 91.31568359 143.24779297 92.375 144.0625 C95.20213892 146.27665179 97.65997941 148.21300792 99.4375 151.375 C98.5228668 166.4410414 84.85980995 187.26872953 75.4375 198.375 C73.16015625 198.58203125 73.16015625 198.58203125 70.5 198.1875 C69.03626953 198.00380859 69.03626953 198.00380859 67.54296875 197.81640625 C66.00576172 197.59791016 66.00576172 197.59791016 64.4375 197.375 C47.06409084 195.05707375 34.33114228 203.17114792 20.78125 213.453125 C14.4087132 218.67860518 11.84845917 222.68961031 10.46875 230.921875 C9.4375 233.375 9.4375 233.375 6.75390625 235.09765625 C-2.74124559 238.75479954 -12.4017604 239.67482499 -22.5 239.8125 C-23.81303101 239.84573364 -23.81303101 239.84573364 -25.15258789 239.87963867 C-31.83406288 239.85735648 -37.20621098 238.38893884 -42.25708008 233.85327148 C-45.56293568 230.43682573 -47.44385681 226.66240471 -49.4375 222.375 C-52.67630733 215.69704675 -56.2204222 211.24514952 -63.14672852 208.26196289 C-70.71140399 205.67576563 -77.92850901 204.50128834 -85.875 203.8125 C-95.91803861 202.92246513 -104.2802412 202.07081917 -111.5625 194.375 C-119.51853889 184.77943032 -126.07105603 173.54772706 -131.5625 162.375 C-131.10286865 162.05152588 -130.6432373 161.72805176 -130.16967773 161.39477539 C-124.19056416 156.97437476 -117.58917767 152.03004987 -115.91796875 144.45263672 C-115.44198941 137.01545955 -116.4810088 129.7197143 -117.5625 122.375 C-117.73759973 120.81081685 -117.90527132 119.24576795 -118.0625 117.6796875 C-118.72503601 111.72869437 -119.64468773 106.06567205 -121.5625 100.375 C-123.22098177 99.36148336 -124.88915961 98.36379205 -126.5625 97.375 C-130.25274186 93.2511122 -132.65053215 90.27258182 -132.38671875 84.5859375 C-131.66558675 80.31158236 -130.45285074 76.26525312 -129 72.1875 C-128.73968994 71.45426514 -128.47937988 70.72103027 -128.21118164 69.96557617 C-124.94320826 61.18450785 -119.30419651 47.74584825 -110.5625 43.375 C-108.45637005 43.16354958 -106.349599 42.95680019 -104.24023438 42.78051758 C-88.73477415 41.45626586 -75.28807001 37.74525961 -64.1875 26.125 C-58.3781082 19.12271461 -55.07614476 11.44939083 -54.5625 2.375 C-37.43793798 -5.56273816 -17.50435874 -7.98444434 0 0 Z M-61.12939453 41.27832031 C-63.34252582 42.27585049 -65.55289765 43.12036899 -67.83984375 43.9296875 C-77.00741623 47.4761504 -80.44856766 52.62657849 -84.5 61.5 C-85.81318804 64.53688206 -87.09528151 67.58462562 -88.36328125 70.640625 C-89.96151722 74.28481125 -91.91019621 77.62177904 -94 81 C-104.82891614 99.3514624 -105.54842405 125.82134832 -100.5625 146.375 C-93.69435661 167.91013757 -76.99356662 184.9161637 -57.40722656 195.42919922 C-35.96674789 206.42184273 -10.38449513 207.61500521 12.4375 200.375 C34.33297704 193.03234128 51.26159133 177.9162955 61.6875 157.5 C72.36416464 135.78847924 74.74479323 112.05733347 67.3359375 88.9375 C62.92124115 76.86116935 56.95592889 66.99404006 48.4375 57.375 C47.88449219 56.73820312 47.33148438 56.10140625 46.76171875 55.4453125 C33.12889668 40.76381181 11.05273497 29.99412889 -8.890625 29.13671875 C-28.17208178 28.69434822 -43.74745424 33.08572739 -61.12939453 41.27832031 Z " fill="#E21D23" transform="translate(360.5625,195.625)"/>
<path d="M0 0 C12.54 0 25.08 0 38 0 C45.48238886 13.67152533 52.89629121 27.37669101 60.24703979 41.11935425 C60.56383698 41.71160797 60.88063416 42.30386169 61.20703125 42.9140625 C61.5234256 43.50559113 61.83981995 44.09711975 62.165802 44.70657349 C65.45385977 50.85189087 68.75679978 56.9891597 72.0625 63.125 C72.63597168 64.18944336 73.20944336 65.25388672 73.80029297 66.35058594 C74.95548805 68.49450837 76.11076131 70.63838868 77.26611328 72.78222656 C80.17870266 78.18745438 83.08921814 83.59379868 86 89 C86.8652832 90.60681641 86.8652832 90.60681641 87.74804688 92.24609375 C90.67801656 97.68699834 93.60726143 103.12829105 96.53515625 108.5703125 C102.41031635 119.48920385 108.29125111 130.40498019 114.1875 141.3125 C114.72834229 142.31490723 115.26918457 143.31731445 115.82641602 144.35009766 C116.33100342 145.28257324 116.83559082 146.21504883 117.35546875 147.17578125 C118.01518677 148.39648315 118.01518677 148.39648315 118.68823242 149.6418457 C120.07176665 152.12901434 121.53089247 154.56261669 123 157 C123.07010641 139.50183156 123.12299615 122.00370701 123.15543652 104.50543022 C123.17090005 96.38052549 123.1919797 88.25570807 123.22631836 80.13085938 C123.2562365 73.04856562 123.27557874 65.96633511 123.28226548 58.88397992 C123.28617367 55.13451695 123.29534761 51.38523487 123.31719017 47.63582993 C123.34138633 43.44838209 123.34196844 39.261248 123.34057617 35.07373047 C123.351362 33.83295242 123.36214783 32.59217438 123.3732605 31.313797 C123.39763257 23.22388869 123.39763257 23.22388869 120 16 C116.10501111 12.47016632 112.43755365 11.85956324 107.3125 11.4375 C105.559375 11.293125 103.80625 11.14875 102 11 C102 7.37 102 3.74 102 0 C120.48 0 138.96 0 158 0 C158 3.63 158 7.26 158 11 C151.4 11 144.8 11 138 11 C138 84.92 138 158.84 138 235 C135.03 235 132.06 235 129 235 C121.78146481 222.09462783 114.70523136 209.1157245 107.67773438 196.10546875 C104.93407132 191.02697718 102.18616385 185.95078632 99.4375 180.875 C98.89891357 179.88032715 98.36032715 178.8856543 97.80541992 177.86083984 C93.72482133 170.32865561 89.62512186 162.80702447 85.51928711 155.28857422 C81.28008082 147.52237613 77.06633098 139.74253088 72.85546875 131.9609375 C68.76396219 124.40288004 64.65202553 116.85616322 60.53271484 109.31323242 C56.18353653 101.34548602 51.85821828 93.36491458 47.5390625 85.38085938 C47.03375 84.44693359 46.5284375 83.51300781 46.0078125 82.55078125 C45.57098145 81.74294189 45.13415039 80.93510254 44.68408203 80.1027832 C43.09143291 77.16845764 41.49370149 74.23696832 39.89474487 71.30607605 C39.35306608 70.31313632 38.81138729 69.32019659 38.25329399 68.29716778 C37.83970697 67.53910241 37.42611996 66.78103704 37 66 C36.9766038 82.79445622 36.95898786 99.58890732 36.94818783 116.38337612 C36.94303913 124.18194055 36.93602369 131.98049482 36.92456055 139.77905273 C36.91457005 146.57900835 36.9081362 153.37895662 36.90591151 160.17891937 C36.9046118 163.77694202 36.901573 167.37494364 36.89426994 170.97295952 C36.88616923 174.99687494 36.88601167 179.02075418 36.88647461 183.04467773 C36.8810817 184.81953552 36.8810817 184.81953552 36.87557983 186.63024902 C36.44664819 199.70396276 36.44664819 199.70396276 42 211 C45.59911155 212.77490432 48.76711386 213.30953291 52.75 213.5625 C57.89985694 213.89985694 57.89985694 213.89985694 59 215 C59 218.3 59 221.6 59 225 C39.53 225 20.06 225 0 225 C0 221.37 0 217.74 0 214 C7.59 214 15.18 214 23 214 C22.89249092 190.03440337 22.77991903 166.06883655 22.66066074 142.10329533 C22.60541257 130.97536818 22.55194453 119.84743783 22.50268555 108.71948242 C22.45974058 99.01893329 22.41343688 89.31840696 22.36312145 79.61789316 C22.33660343 74.48287493 22.31175277 69.34786097 22.29092598 64.21281624 C22.27125535 59.37592893 22.24708128 54.53908469 22.21950912 49.70223618 C22.21019364 47.93059895 22.20249895 46.15895232 22.19658089 44.38730049 C23.21712796 28.7515427 23.21712796 28.7515427 18 15 C12.20643166 11.62041847 6.63424943 11.40952157 0 11 C0 7.37 0 3.74 0 0 Z " fill="#E21D23" transform="translate(2679,362)"/>
<path d="M0 0 C12.54 0 25.08 0 38 0 C45.48238886 13.67152533 52.89629121 27.37669101 60.24703979 41.11935425 C60.56383698 41.71160797 60.88063416 42.30386169 61.20703125 42.9140625 C61.5234256 43.50559113 61.83981995 44.09711975 62.165802 44.70657349 C65.45385977 50.85189087 68.75679978 56.9891597 72.0625 63.125 C72.63597168 64.18944336 73.20944336 65.25388672 73.80029297 66.35058594 C74.95548805 68.49450837 76.11076131 70.63838868 77.26611328 72.78222656 C80.17870266 78.18745438 83.08921814 83.59379868 86 89 C86.8652832 90.60681641 86.8652832 90.60681641 87.74804688 92.24609375 C90.67801656 97.68699834 93.60726143 103.12829105 96.53515625 108.5703125 C102.41031635 119.48920385 108.29125111 130.40498019 114.1875 141.3125 C114.72834229 142.31490723 115.26918457 143.31731445 115.82641602 144.35009766 C116.33100342 145.28257324 116.83559082 146.21504883 117.35546875 147.17578125 C118.01518677 148.39648315 118.01518677 148.39648315 118.68823242 149.6418457 C120.07176665 152.12901434 121.53089247 154.56261669 123 157 C123.07010641 139.50183156 123.12299615 122.00370701 123.15543652 104.50543022 C123.17090005 96.38052549 123.1919797 88.25570807 123.22631836 80.13085938 C123.2562365 73.04856562 123.27557874 65.96633511 123.28226548 58.88397992 C123.28617367 55.13451695 123.29534761 51.38523487 123.31719017 47.63582993 C123.34138633 43.44838209 123.34196844 39.261248 123.34057617 35.07373047 C123.351362 33.83295242 123.36214783 32.59217438 123.3732605 31.313797 C123.39763257 23.22388869 123.39763257 23.22388869 120 16 C116.10501111 12.47016632 112.43755365 11.85956324 107.3125 11.4375 C105.559375 11.293125 103.80625 11.14875 102 11 C102 7.37 102 3.74 102 0 C120.48 0 138.96 0 158 0 C158 3.63 158 7.26 158 11 C151.4 11 144.8 11 138 11 C138 84.92 138 158.84 138 235 C135.03 235 132.06 235 129 235 C121.78146481 222.09462783 114.70523136 209.1157245 107.67773438 196.10546875 C104.93407132 191.02697718 102.18616385 185.95078632 99.4375 180.875 C98.89891357 179.88032715 98.36032715 178.8856543 97.80541992 177.86083984 C93.72482133 170.32865561 89.62512186 162.80702447 85.51928711 155.28857422 C81.28008082 147.52237613 77.06633098 139.74253088 72.85546875 131.9609375 C68.76396219 124.40288004 64.65202553 116.85616322 60.53271484 109.31323242 C56.18353653 101.34548602 51.85821828 93.36491458 47.5390625 85.38085938 C47.03375 84.44693359 46.5284375 83.51300781 46.0078125 82.55078125 C45.57098145 81.74294189 45.13415039 80.93510254 44.68408203 80.1027832 C43.09143291 77.16845764 41.49370149 74.23696832 39.89474487 71.30607605 C39.35306608 70.31313632 38.81138729 69.32019659 38.25329399 68.29716778 C37.83970697 67.53910241 37.42611996 66.78103704 37 66 C36.9766038 82.79445622 36.95898786 99.58890732 36.94818783 116.38337612 C36.94303913 124.18194055 36.93602369 131.98049482 36.92456055 139.77905273 C36.91457005 146.57900835 36.9081362 153.37895662 36.90591151 160.17891937 C36.9046118 163.77694202 36.901573 167.37494364 36.89426994 170.97295952 C36.88616923 174.99687494 36.88601167 179.02075418 36.88647461 183.04467773 C36.8810817 184.81953552 36.8810817 184.81953552 36.87557983 186.63024902 C36.44664819 199.70396276 36.44664819 199.70396276 42 211 C45.59911155 212.77490432 48.76711386 213.30953291 52.75 213.5625 C57.89985694 213.89985694 57.89985694 213.89985694 59 215 C59 218.3 59 221.6 59 225 C39.53 225 20.06 225 0 225 C0 221.37 0 217.74 0 214 C7.59 214 15.18 214 23 214 C22.89249092 190.03440337 22.77991903 166.06883655 22.66066074 142.10329533 C22.60541257 130.97536818 22.55194453 119.84743783 22.50268555 108.71948242 C22.45974058 99.01893329 22.41343688 89.31840696 22.36312145 79.61789316 C22.33660343 74.48287493 22.31175277 69.34786097 22.29092598 64.21281624 C22.27125535 59.37592893 22.24708128 54.53908469 22.21950912 49.70223618 C22.21019364 47.93059895 22.20249895 46.15895232 22.19658089 44.38730049 C23.21712796 28.7515427 23.21712796 28.7515427 18 15 C12.20643166 11.62041847 6.63424943 11.40952157 0 11 C0 7.37 0 3.74 0 0 Z " fill="#E21D23" transform="translate(2166,362)"/>
<path d="M0 0 C3.63 0 7.26 0 11 0 C11 28.05 11 56.1 11 85 C7.37 85 3.74 85 0 85 C-0.0093457 83.97229492 -0.01869141 82.94458984 -0.02832031 81.88574219 C-0.06866034 78.01618536 -0.13453246 74.14738746 -0.20751953 70.27832031 C-0.23547718 68.61435815 -0.25681499 66.9502694 -0.27099609 65.28613281 C-0.39038465 52.05788116 -1.08692092 38.93613276 -11 29 C-17.28490808 23.49013664 -25.22187173 21.6371662 -33.48828125 22.15625 C-40.16034246 23.35468587 -45.60983901 26.54524007 -50.3125 31.375 C-54.8249828 38.39441769 -57.10349734 45.85762835 -55.3125 54.125 C-49.68522308 72.73547137 -30.28787981 80.20835456 -14.60162354 88.82366943 C38.36832344 117.9173634 38.36832344 117.9173634 47.99609375 145.89453125 C53.7599186 166.49537893 51.00544993 187.41889341 40.875 206.125 C29.32151433 224.92134327 11.3469646 236.96613069 -9.546875 243.2109375 C-18.80490482 245.32646015 -27.75348832 246.36453568 -37.25 246.3125 C-38.34046631 246.30686035 -39.43093262 246.3012207 -40.55444336 246.29541016 C-63.66804181 245.95009939 -84.86257056 238.72508875 -101.875 222.8125 C-114.19668666 209.76494078 -119.67085331 193.99987278 -119.47314453 176.13598633 C-118.82359505 158.78248193 -112.70288995 144.06362114 -100 132 C-87.70843793 121.49071443 -73.12977574 117.97880557 -57.30175781 118.77783203 C-44.7160273 119.99261934 -33.70089071 125.72970155 -25.125 134.9375 C-18.58143977 142.88545641 -16.55721796 150.41457807 -16.66015625 160.60546875 C-17.34284231 167.42448236 -20.33497082 172.77962866 -25.3125 177.4375 C-32.89112675 183.16609795 -40.63070436 183.92373337 -50 183 C-52.89453125 181.98046875 -52.89453125 181.98046875 -55 181 C-55 178.36 -55 175.72 -55 173 C-53.89591797 172.67128906 -53.89591797 172.67128906 -52.76953125 172.3359375 C-45.0816843 169.83764113 -41.76853031 167.74605196 -37.6875 160.75 C-35.80725002 153.22900007 -36.61400687 147.04884314 -40.37890625 140.265625 C-44.35348188 134.71079641 -49.47978474 131.76522901 -56 130 C-64.78479468 129.16887531 -72.36972881 129.36040713 -80 134 C-81.010625 134.556875 -82.02125 135.11375 -83.0625 135.6875 C-92.76139398 143.32279951 -98.79888237 152.83718837 -100.41015625 165.12890625 C-101.98881357 181.65944438 -97.99623631 195.70603625 -88 209 C-87.56171875 209.60328125 -87.1234375 210.2065625 -86.671875 210.828125 C-77.23845846 222.86386335 -61.01966332 231.03738741 -46 233 C-25.74352743 234.50274193 -7.17584862 231.69901299 8.81958008 218.14135742 C19.54469722 208.54750362 26.52912607 196.84739339 27.34375 182.265625 C27.3894055 180.59408136 27.42070744 178.92208271 27.4375 177.25 C27.44773193 176.47011719 27.45796387 175.69023438 27.46850586 174.88671875 C27.28386467 162.67715887 21.62823351 152.39377064 13 144 C4.65897042 136.95283495 -4.59089012 131.47122315 -14 126 C-17.97180904 123.68902738 -21.93988058 121.37194846 -25.90231323 119.04495239 C-27.63329773 118.03172709 -29.36943047 117.02731298 -31.10571289 116.02319336 C-49.67288211 105.13506368 -68.82193026 91.89226435 -74.7890625 70.12109375 C-77.47646243 56.66617812 -75.65271119 43.65106028 -68.6875 31.8125 C-61.75556249 21.5507194 -53.00552479 13.63007447 -40.72265625 10.49609375 C-26.03286627 7.81947492 -14.29598148 9.35200926 -1 16 C-0.67 10.72 -0.34 5.44 0 0 Z " fill="#E21D23" transform="translate(3495,347)"/>
<path d="M0 0 C3.63 0 7.26 0 11 0 C11 29.04 11 58.08 11 88 C7.37 88 3.74 88 0 88 C-0.03867188 86.329375 -0.03867188 86.329375 -0.078125 84.625 C-0.66000021 66.98581304 -3.38908627 51.30201173 -16 38 C-18.13292989 36.16535148 -20.37608378 34.53912622 -22.6875 32.9375 C-23.30689453 32.5048584 -23.92628906 32.0722168 -24.56445312 31.62646484 C-42.50838285 19.30279705 -64.13325048 15.26835771 -85.59375 18.61328125 C-105.52436883 22.45335482 -122.27544594 33.43503371 -134 50 C-149.89559425 74.4326494 -153.71704228 103.34225075 -147.97265625 131.734375 C-142.87642641 154.77544723 -133.64558021 176.13518855 -118 194 C-117.37609375 194.76828125 -116.7521875 195.5365625 -116.109375 196.328125 C-102.22326796 213.01479144 -80.7113383 225.14316615 -59.125 227.40625 C-40.64873904 228.98543553 -26.22254785 224.57307117 -10.1875 215.70703125 C-7 214 -7 214 -4 213 C-4.11106089 209.02031827 -4.24140233 205.04148389 -4.375 201.0625 C-4.42140625 199.38704102 -4.42140625 199.38704102 -4.46875 197.67773438 C-4.41593785 187.00338917 -4.41593785 187.00338917 -8.24267578 177.38305664 C-14.05991016 172.04540961 -21.94281982 172.76086875 -29.375 172.4375 C-30.30183594 172.39431641 -31.22867188 172.35113281 -32.18359375 172.30664062 C-34.45558351 172.20123904 -36.72777413 172.10018257 -39 172 C-39 168.37 -39 164.74 -39 161 C-10.62 161 17.76 161 47 161 C47 164.63 47 168.26 47 172 C39.74 172 32.48 172 25 172 C25.08793424 175.91762206 25.19495292 179.83324248 25.3125 183.75 C25.33505859 184.84183594 25.35761719 185.93367187 25.38085938 187.05859375 C25.63008722 194.71668579 26.84801321 201.64883306 29 209 C-3.528856 233.12474427 -40.83456741 246.03393013 -81.6796875 240.30859375 C-111.30638183 235.27222313 -137.75131857 219.86107517 -156 196 C-156.60714844 195.20851563 -157.21429687 194.41703125 -157.83984375 193.6015625 C-177.45450794 166.82598917 -183.09709591 134.0938838 -178.4453125 101.61181641 C-176.03588326 87.4801969 -171.12769802 74.39182958 -164 62 C-163.13375 60.49373047 -163.13375 60.49373047 -162.25 58.95703125 C-158.10049721 52.1468519 -153.25023798 45.99260553 -148 40 C-147.33613281 39.23945313 -146.67226562 38.47890625 -145.98828125 37.6953125 C-124.83043958 15.04634675 -94.43136036 5.30625526 -64.29296875 3.87109375 C-41.4332105 3.35700623 -20.2266131 10.88669345 0 21 C0 14.07 0 7.14 0 0 Z " fill="#E21D23" transform="translate(2522,352)"/>
<path d="M0 0 C3.63 0 7.26 0 11 0 C11 26.07 11 52.14 11 79 C7.37 79 3.74 79 0 79 C-0.03738281 77.45570313 -0.07476563 75.91140625 -0.11328125 74.3203125 C-0.17898982 72.25518602 -0.24543542 70.19008289 -0.3125 68.125 C-0.33505859 67.11179687 -0.35761719 66.09859375 -0.38085938 65.0546875 C-0.75404489 54.46978918 -2.83176023 43.83732562 -10.8203125 36.27734375 C-24.62009288 25.26457784 -43.26468113 26.88080626 -60 26 C-60 43.49 -60 60.98 -60 79 C-51.42 79 -42.84 79 -34 79 C-34.01160156 76.84597656 -34.02320312 74.69195312 -34.03515625 72.47265625 C-34.04294737 70.39428861 -34.04902381 68.31592257 -34.05493164 66.23754883 C-34.05997101 64.78929927 -34.06680253 63.34105483 -34.07543945 61.89282227 C-34.08752247 59.81525412 -34.09323211 57.73775303 -34.09765625 55.66015625 C-34.10289307 54.40855713 -34.10812988 53.15695801 -34.11352539 51.86743164 C-34 49 -34 49 -33 48 C-29.7 48 -26.4 48 -23 48 C-23 75.06 -23 102.12 -23 130 C-26.63 130 -30.26 130 -34 130 C-34.02578125 128.61167969 -34.0515625 127.22335937 -34.078125 125.79296875 C-34.33585256 109.40628492 -34.33585256 109.40628492 -41.3125 94.9375 C-46.54453072 91.91864466 -46.54453072 91.91864466 -60 91 C-60 136.54 -60 182.08 -60 229 C-33.92366292 229.70003456 -33.92366292 229.70003456 -11.453125 219.171875 C-10 218 -10 218 -8 218 C-7.731875 217.29875 -7.46375 216.5975 -7.1875 215.875 C-6 213 -6 213 -4.5 210.3125 C-0.65003689 201.81049814 -0.62089675 192.56539095 -0.375 183.375 C-0.33632812 182.18003906 -0.29765625 180.98507812 -0.2578125 179.75390625 C-0.16444481 176.8361658 -0.08117715 173.91810506 0 171 C3.63 171 7.26 171 11 171 C11 198.72 11 226.44 11 255 C7.37 255 3.74 255 0 255 C0 250.05 0 245.1 0 240 C-37.29 240 -74.58 240 -113 240 C-113 236.37 -113 232.74 -113 229 C-105.41 229 -97.82 229 -90 229 C-90.06115296 204.21751393 -90.13802057 179.435133 -90.23571491 154.65276241 C-90.28068048 143.14587762 -90.32009345 131.63902382 -90.34643555 120.13208008 C-90.3694094 110.10263275 -90.40280067 100.07328347 -90.44870156 90.0439139 C-90.47264194 84.73343835 -90.49136542 79.42305995 -90.49761391 74.11253166 C-90.503661 69.11305072 -90.52364755 64.11381839 -90.55427551 59.11442947 C-90.5630617 57.28068455 -90.56677712 55.44690714 -90.56500816 53.61314201 C-90.56335347 51.10610143 -90.58007098 48.59981699 -90.60127258 46.09288025 C-90.59642501 45.37009901 -90.59157743 44.64731778 -90.58658296 43.90263408 C-90.6571331 38.83499837 -91.71993801 35.43362019 -94 31 C-97.82237847 27.41652018 -101.59563243 26.85683027 -106.6875 26.4375 C-108.440625 26.293125 -110.19375 26.14875 -112 26 C-112 22.37 -112 18.74 -112 15 C-75.04 15 -38.08 15 0 15 C0 10.05 0 5.1 0 0 Z " fill="#E21D23" transform="translate(3116,347)"/>
<path d="M0 0 C3.63 0 7.26 0 11 0 C11 26.07 11 52.14 11 79 C7.37 79 3.74 79 0 79 C-0.03738281 77.45570313 -0.07476563 75.91140625 -0.11328125 74.3203125 C-0.17898982 72.25518602 -0.24543542 70.19008289 -0.3125 68.125 C-0.33505859 67.11179687 -0.35761719 66.09859375 -0.38085938 65.0546875 C-0.75404489 54.46978918 -2.83176023 43.83732562 -10.8203125 36.27734375 C-24.62009288 25.26457784 -43.26468113 26.88080626 -60 26 C-60 43.49 -60 60.98 -60 79 C-51.42 79 -42.84 79 -34 79 C-34.01160156 76.84597656 -34.02320312 74.69195312 -34.03515625 72.47265625 C-34.04294737 70.39428861 -34.04902381 68.31592257 -34.05493164 66.23754883 C-34.05997101 64.78929927 -34.06680253 63.34105483 -34.07543945 61.89282227 C-34.08752247 59.81525412 -34.09323211 57.73775303 -34.09765625 55.66015625 C-34.10289307 54.40855713 -34.10812988 53.15695801 -34.11352539 51.86743164 C-34 49 -34 49 -33 48 C-29.7 48 -26.4 48 -23 48 C-23 75.06 -23 102.12 -23 130 C-26.63 130 -30.26 130 -34 130 C-34.02578125 128.61167969 -34.0515625 127.22335937 -34.078125 125.79296875 C-34.33585256 109.40628492 -34.33585256 109.40628492 -41.3125 94.9375 C-46.54453072 91.91864466 -46.54453072 91.91864466 -60 91 C-60 136.54 -60 182.08 -60 229 C-33.92366292 229.70003456 -33.92366292 229.70003456 -11.453125 219.171875 C-10 218 -10 218 -8 218 C-7.731875 217.29875 -7.46375 216.5975 -7.1875 215.875 C-6 213 -6 213 -4.5 210.3125 C-0.65003689 201.81049814 -0.62089675 192.56539095 -0.375 183.375 C-0.33632812 182.18003906 -0.29765625 180.98507812 -0.2578125 179.75390625 C-0.16444481 176.8361658 -0.08117715 173.91810506 0 171 C3.63 171 7.26 171 11 171 C11 198.72 11 226.44 11 255 C7.37 255 3.74 255 0 255 C0 250.05 0 245.1 0 240 C-37.29 240 -74.58 240 -113 240 C-113 236.37 -113 232.74 -113 229 C-105.41 229 -97.82 229 -90 229 C-90.06115296 204.21751393 -90.13802057 179.435133 -90.23571491 154.65276241 C-90.28068048 143.14587762 -90.32009345 131.63902382 -90.34643555 120.13208008 C-90.3694094 110.10263275 -90.40280067 100.07328347 -90.44870156 90.0439139 C-90.47264194 84.73343835 -90.49136542 79.42305995 -90.49761391 74.11253166 C-90.503661 69.11305072 -90.52364755 64.11381839 -90.55427551 59.11442947 C-90.5630617 57.28068455 -90.56677712 55.44690714 -90.56500816 53.61314201 C-90.56335347 51.10610143 -90.58007098 48.59981699 -90.60127258 46.09288025 C-90.59642501 45.37009901 -90.59157743 44.64731778 -90.58658296 43.90263408 C-90.6571331 38.83499837 -91.71993801 35.43362019 -94 31 C-97.82237847 27.41652018 -101.59563243 26.85683027 -106.6875 26.4375 C-108.440625 26.293125 -110.19375 26.14875 -112 26 C-112 22.37 -112 18.74 -112 15 C-75.04 15 -38.08 15 0 15 C0 10.05 0 5.1 0 0 Z " fill="#E21D23" transform="translate(2969,347)"/>
<path d="M0 0 C3.63 0 7.26 0 11 0 C11 26.07 11 52.14 11 79 C7.37 79 3.74 79 0 79 C-0.03738281 77.45570313 -0.07476563 75.91140625 -0.11328125 74.3203125 C-0.17898982 72.25518602 -0.24543542 70.19008289 -0.3125 68.125 C-0.33505859 67.11179687 -0.35761719 66.09859375 -0.38085938 65.0546875 C-0.75404489 54.46978918 -2.83176023 43.83732562 -10.8203125 36.27734375 C-24.62009288 25.26457784 -43.26468113 26.88080626 -60 26 C-60 43.49 -60 60.98 -60 79 C-51.42 79 -42.84 79 -34 79 C-34.01160156 76.84597656 -34.02320312 74.69195312 -34.03515625 72.47265625 C-34.04294737 70.39428861 -34.04902381 68.31592257 -34.05493164 66.23754883 C-34.05997101 64.78929927 -34.06680253 63.34105483 -34.07543945 61.89282227 C-34.08752247 59.81525412 -34.09323211 57.73775303 -34.09765625 55.66015625 C-34.10289307 54.40855713 -34.10812988 53.15695801 -34.11352539 51.86743164 C-34 49 -34 49 -33 48 C-29.7 48 -26.4 48 -23 48 C-23 75.06 -23 102.12 -23 130 C-26.63 130 -30.26 130 -34 130 C-34.02578125 128.61167969 -34.0515625 127.22335937 -34.078125 125.79296875 C-34.33585256 109.40628492 -34.33585256 109.40628492 -41.3125 94.9375 C-46.54453072 91.91864466 -46.54453072 91.91864466 -60 91 C-60 136.54 -60 182.08 -60 229 C-33.92366292 229.70003456 -33.92366292 229.70003456 -11.453125 219.171875 C-10 218 -10 218 -8 218 C-7.731875 217.29875 -7.46375 216.5975 -7.1875 215.875 C-6 213 -6 213 -4.5 210.3125 C-0.65003689 201.81049814 -0.62089675 192.56539095 -0.375 183.375 C-0.33632812 182.18003906 -0.29765625 180.98507812 -0.2578125 179.75390625 C-0.16444481 176.8361658 -0.08117715 173.91810506 0 171 C3.63 171 7.26 171 11 171 C11 198.72 11 226.44 11 255 C7.37 255 3.74 255 0 255 C0 250.05 0 245.1 0 240 C-37.29 240 -74.58 240 -113 240 C-113 236.37 -113 232.74 -113 229 C-105.41 229 -97.82 229 -90 229 C-90.06115296 204.21751393 -90.13802057 179.435133 -90.23571491 154.65276241 C-90.28068048 143.14587762 -90.32009345 131.63902382 -90.34643555 120.13208008 C-90.3694094 110.10263275 -90.40280067 100.07328347 -90.44870156 90.0439139 C-90.47264194 84.73343835 -90.49136542 79.42305995 -90.49761391 74.11253166 C-90.503661 69.11305072 -90.52364755 64.11381839 -90.55427551 59.11442947 C-90.5630617 57.28068455 -90.56677712 55.44690714 -90.56500816 53.61314201 C-90.56335347 51.10610143 -90.58007098 48.59981699 -90.60127258 46.09288025 C-90.59642501 45.37009901 -90.59157743 44.64731778 -90.58658296 43.90263408 C-90.6571331 38.83499837 -91.71993801 35.43362019 -94 31 C-97.82237847 27.41652018 -101.59563243 26.85683027 -106.6875 26.4375 C-108.440625 26.293125 -110.19375 26.14875 -112 26 C-112 22.37 -112 18.74 -112 15 C-75.04 15 -38.08 15 0 15 C0 10.05 0 5.1 0 0 Z " fill="#E21D23" transform="translate(2132,347)"/>
<path d="M0 0 C11.97391476 11.13299861 18.88049328 25.78124568 19.7109375 42.109375 C19.969786 51.30217115 19.93008435 60.26240268 16.37109375 68.87890625 C16.04238281 69.71164062 15.71367188 70.544375 15.375 71.40234375 C10.5040495 82.35776875 2.06438616 90.58854053 -8.62890625 95.87890625 C-26.34845101 102.66863836 -44.399842 102.92487049 -61.80859375 95.2890625 C-65.86616379 93.26027748 -69.23503259 90.87433772 -72.62890625 87.87890625 C-73.29535156 87.30527344 -73.96179687 86.73164062 -74.6484375 86.140625 C-85.12795691 76.46259847 -91.04701137 63.37539469 -91.83203125 49.21484375 C-92.03359976 32.18230457 -88.03626015 18.76752363 -76.02734375 6.16015625 C-55.78523025 -13.0929289 -22.51430703 -18.16533242 0 0 Z " fill="#E21D23" transform="translate(1644.62890625,513.12109375)"/>
<path d="M0 0 C24.75 0 49.5 0 75 0 C75 3.63 75 7.26 75 11 C67.74 11 60.48 11 53 11 C53.06115296 35.78248607 53.13802057 60.564867 53.23571491 85.34723759 C53.28068048 96.85412238 53.32009345 108.36097618 53.34643555 119.86791992 C53.3694094 129.89736725 53.40280067 139.92671653 53.44870156 149.9560861 C53.47264194 155.26656165 53.49136542 160.57694005 53.49761391 165.88746834 C53.503661 170.88694928 53.52364755 175.88618161 53.55427551 180.88557053 C53.5630617 182.71931545 53.56677712 184.55309286 53.56500816 186.38685799 C53.56335347 188.89389857 53.58007098 191.40018301 53.60127258 193.90711975 C53.59642501 194.62990099 53.59157743 195.35268222 53.58658296 196.09736592 C53.67207714 202.23843601 54.96008181 207.0123874 59.4375 211.375 C64.51722882 213.69206928 69.47064969 213.82105662 75 214 C75 217.63 75 221.26 75 225 C50.25 225 25.5 225 0 225 C0 221.37 0 217.74 0 214 C7.59 214 15.18 214 23 214 C22.89249092 190.03440337 22.77991903 166.06883655 22.66066074 142.10329533 C22.60541257 130.97536818 22.55194453 119.84743783 22.50268555 108.71948242 C22.45974058 99.01893329 22.41343688 89.31840696 22.36312145 79.61789316 C22.33660343 74.48287493 22.31175277 69.34786097 22.29092598 64.21281624 C22.27125535 59.37592893 22.24708128 54.53908469 22.21950912 49.70223618 C22.21019364 47.93059895 22.20249895 46.15895232 22.19658089 44.38730049 C23.21712796 28.7515427 23.21712796 28.7515427 18 15 C12.20643166 11.62041847 6.63424943 11.40952157 0 11 C0 7.37 0 3.74 0 0 Z " fill="#E21D23" transform="translate(2583,362)"/>
<path d="M0 0 C7.55833272 4.53986812 12.69650875 12.45426922 15.10546875 20.81640625 C15.98729389 24.51282396 16.42578125 27.62521042 16.42578125 31.45703125 C17.41578125 31.32941406 18.40578125 31.20179688 19.42578125 31.0703125 C23.63514802 30.69427645 27.24307208 30.67620259 31.42578125 31.45703125 C35.09660228 34.6012366 37.37692838 38.09749128 39.42578125 42.45703125 C39.42578125 43.11703125 39.42578125 43.77703125 39.42578125 44.45703125 C33.15578125 44.45703125 26.88578125 44.45703125 20.42578125 44.45703125 C20.42578125 65.90703125 20.42578125 87.35703125 20.42578125 109.45703125 C8.42578125 103.45703125 8.42578125 103.45703125 6.42578125 101.45703125 C6.18527222 99.05258179 6.18527222 99.05258179 6.19873047 95.99755859 C6.19888153 94.85652679 6.19903259 93.715495 6.19918823 92.53988647 C6.2095108 91.30340363 6.21983337 90.06692078 6.23046875 88.79296875 C6.23329865 87.53062408 6.23612854 86.26827942 6.23904419 84.96768188 C6.24835994 81.61056181 6.2663329 78.25371213 6.28845215 74.89666748 C6.30890575 71.47150003 6.31804485 68.04630466 6.328125 64.62109375 C6.3502167 57.89965489 6.38476278 51.17838019 6.42578125 44.45703125 C0.48578125 44.45703125 -5.45421875 44.45703125 -11.57421875 44.45703125 C-11.57421875 65.90703125 -11.57421875 87.35703125 -11.57421875 109.45703125 C-23.57421875 103.45703125 -23.57421875 103.45703125 -25.57421875 101.45703125 C-25.88020938 98.88786468 -26.08508962 96.40944741 -26.19921875 93.83203125 C-26.25722656 92.77242187 -26.25722656 92.77242187 -26.31640625 91.69140625 C-26.41069599 89.94704601 -26.49354766 88.20207434 -26.57421875 86.45703125 C-27.05141357 86.83400146 -27.5286084 87.21097168 -28.02026367 87.59936523 C-37.66936524 95.20586328 -47.35351256 102.6311886 -57.57421875 109.45703125 C-60.69245996 108.09449542 -62.62159226 106.60594872 -64.82421875 104.01953125 C-65.345 103.42269531 -65.86578125 102.82585937 -66.40234375 102.2109375 C-67.57421875 100.45703125 -67.57421875 100.45703125 -67.57421875 97.45703125 C-66.140625 96.11010742 -66.140625 96.11010742 -64.13671875 94.75 C-63.04037109 93.99299805 -63.04037109 93.99299805 -61.921875 93.22070312 C-61.14714844 92.70056641 -60.37242187 92.18042969 -59.57421875 91.64453125 C-58.0733887 90.61840048 -56.57338576 89.59105893 -55.07421875 88.5625 C-54.33042969 88.05638184 -53.58664062 87.55026367 -52.8203125 87.02880859 C-49.8722206 84.96578516 -47.03275718 82.77390632 -44.203125 80.55200195 C-42.57421875 79.45703125 -42.57421875 79.45703125 -40.57421875 79.45703125 C-40.57421875 78.79703125 -40.57421875 78.13703125 -40.57421875 77.45703125 C-43.90208883 76.03080122 -46.95518106 74.76861278 -50.57421875 74.45703125 C-53.39237435 75.72273015 -53.39237435 75.72273015 -56.171875 77.7109375 C-57.22052734 78.39994141 -58.26917969 79.08894531 -59.34960938 79.79882812 C-61.54550989 81.28233311 -63.74082033 82.76671189 -65.93554688 84.25195312 C-66.98291016 84.93966797 -68.03027344 85.62738281 -69.109375 86.3359375 C-70.06207275 86.98119385 -71.01477051 87.6264502 -71.99633789 88.29125977 C-74.57421875 89.45703125 -74.57421875 89.45703125 -76.80712891 88.75341797 C-78.75823408 87.32203244 -80.30136569 85.84878478 -81.88671875 84.01953125 C-82.68529297 83.12427734 -82.68529297 83.12427734 -83.5 82.2109375 C-83.85449219 81.63214844 -84.20898438 81.05335938 -84.57421875 80.45703125 C-83.36664439 76.83430817 -82.55567826 76.57904488 -79.3203125 74.7578125 C-78.46630859 74.27119141 -77.61230469 73.78457031 -76.73242188 73.28320312 C-75.83458984 72.78369141 -74.93675781 72.28417969 -74.01171875 71.76953125 C-73.11001953 71.25841797 -72.20832031 70.74730469 -71.27929688 70.22070312 C-69.04874906 68.95790621 -66.81374517 67.70381379 -64.57421875 66.45703125 C-65.22422852 65.97145752 -65.87423828 65.48588379 -66.54394531 64.9855957 C-77.40958689 56.80844424 -77.40958689 56.80844424 -78.51171875 50.08203125 C-78.81554976 45.50937457 -77.95144484 42.4446363 -75.57421875 38.45703125 C-71.97000795 34.66153552 -68.02172366 31.75018643 -62.76953125 31.12109375 C-56.4783547 31.04105334 -52.43271273 31.0504902 -47.57421875 35.45703125 C-46.97867188 35.9778125 -46.383125 36.49859375 -45.76953125 37.03515625 C-41.10640696 41.33064833 -38.0332831 45.39657476 -37.296875 51.91015625 C-37.04126722 58.73999608 -38.79781308 62.79242274 -42.57421875 68.45703125 C-40.92421875 69.11703125 -39.27421875 69.77703125 -37.57421875 70.45703125 C-33.94421875 72.43703125 -30.31421875 74.41703125 -26.57421875 76.45703125 C-26.24421875 65.89703125 -25.91421875 55.33703125 -25.57421875 44.45703125 C-28.87421875 44.45703125 -32.17421875 44.45703125 -35.57421875 44.45703125 C-38.30078125 42.12109375 -38.30078125 42.12109375 -40.19921875 39.08203125 C-41.17761719 37.58542969 -41.17761719 37.58542969 -42.17578125 36.05859375 C-43.57421875 33.45703125 -43.57421875 33.45703125 -43.57421875 31.45703125 C-26.08421875 31.45703125 -8.59421875 31.45703125 9.42578125 31.45703125 C6.8524889 20.14375094 6.8524889 20.14375094 -0.50390625 12.27734375 C-4.86185198 10.71968443 -8.04074998 9.84513124 -12.57421875 11.45703125 C-15.73296137 13.91383106 -17.29067116 15.56858213 -18.51171875 19.39453125 C-18.58196734 22.83671197 -17.85923593 25.28228293 -16.57421875 28.45703125 C-19.69921875 28.95703125 -19.69921875 28.95703125 -23.57421875 28.45703125 C-27.90516893 24.26022555 -30.7130091 19.74115593 -30.88671875 13.70703125 C-30.81621849 8.81431339 -29.99095939 6.1365981 -26.57421875 2.45703125 C-18.01276365 -3.59436088 -9.50790415 -4.18466077 0 0 Z M-62.57421875 47.45703125 C-63.82751659 50.30992823 -63.82751659 50.30992823 -63.57421875 53.45703125 C-61.45144475 57.54533672 -59.73130415 59.6016584 -55.57421875 61.45703125 C-54.59252399 60.33423663 -53.61394577 59.20871652 -52.63671875 58.08203125 C-52.09144531 57.45554687 -51.54617188 56.8290625 -50.984375 56.18359375 C-48.34075923 52.94681212 -48.23677191 50.59075505 -48.57421875 46.45703125 C-49.57421875 44.45703125 -49.57421875 44.45703125 -51.57421875 43.45703125 C-56.59126037 42.6935684 -59.14990145 43.73920104 -62.57421875 47.45703125 Z " fill="#E11D23" transform="translate(363.57421875,250.54296875)"/>
</svg>
