<svg width="48" height="48" viewBox="0 0 48 48" fill="none" xmlns="http://www.w3.org/2000/svg">
<path d="M7.10716 8.18945H40.8923C41.6774 8.18945 42.3523 8.47154 42.9402 9.05957V9.06055C43.5283 9.64841 43.8113 10.3233 43.8113 11.1084V36.8926C43.8113 37.5762 43.5951 38.1763 43.1472 38.708L42.9411 38.9316C42.3534 39.5177 41.678 39.7998 40.8923 39.7998H7.10716C6.32554 39.7997 5.65359 39.5184 5.0681 38.9326C4.48224 38.347 4.20091 37.6744 4.20091 36.8926V11.1084C4.20091 10.3228 4.48225 9.64726 5.0681 9.05957H5.06908C5.65471 8.47166 6.3261 8.18951 7.10716 8.18945ZM6.60716 11.2139V37.3926H41.3923V13.2051L40.6179 13.7158L24.6697 24.2148C24.5331 24.2867 24.409 24.3445 24.2966 24.3887C24.2296 24.415 24.1341 24.4355 23.9997 24.4355C23.8654 24.4355 23.7699 24.415 23.7029 24.3887C23.5894 24.3441 23.464 24.2858 23.3259 24.2129L7.60716 13.8633V11.8691L23.7263 22.4258L23.9997 22.6055L24.2732 22.4268L40.9656 11.5264L42.3728 10.6084H5.68138L6.60716 11.2139Z" fill="#01010A" stroke="#01010A"/>
</svg>
