<svg width="48" height="48" viewBox="0 0 48 48" fill="none" xmlns="http://www.w3.org/2000/svg">
<path d="M10.819 20.5735C10.1657 20.4049 9.55132 20.1682 8.97599 19.8635C8.40065 19.5589 7.89165 19.1772 7.44898 18.7185L6.39649 19.1445C6.03948 19.2859 5.69265 19.3019 5.35599 19.1925C5.01899 19.0832 4.76098 18.8674 4.58198 18.545L4.25498 18.0065C4.07132 17.7175 4.00015 17.3947 4.04149 17.038C4.08282 16.6817 4.24465 16.3749 4.52698 16.1175L5.49148 15.208C5.32482 14.568 5.24148 13.9427 5.24148 13.332C5.24148 12.7217 5.32482 12.0945 5.49148 11.4505L4.52698 10.5205C4.24465 10.2692 4.08282 9.95721 4.04149 9.58454C4.00015 9.21154 4.07082 8.87971 4.25348 8.58904L4.51499 8.15354C4.68965 7.82954 4.95765 7.60521 5.31898 7.48054C5.68032 7.35588 6.04482 7.36421 6.41248 7.50554L7.44898 7.93154C7.89965 7.47288 8.40999 7.09104 8.97999 6.78604C9.55032 6.48137 10.163 6.24521 10.818 6.07754L10.9535 4.97704C11.0202 4.57871 11.1978 4.24654 11.4865 3.98054C11.7752 3.71454 12.1177 3.58154 12.514 3.58154H12.9645C13.3512 3.58154 13.6883 3.71437 13.976 3.98004C14.2637 4.24571 14.4438 4.57404 14.5165 4.96504L14.6505 6.07654C15.2958 6.24521 15.9062 6.48188 16.4815 6.78654C17.0568 7.09121 17.5658 7.47288 18.0085 7.93154L19.061 7.50554C19.4153 7.36421 19.7635 7.34754 20.1055 7.45554C20.4475 7.56354 20.7098 7.77954 20.8925 8.10354L21.2165 8.58904C21.3912 8.87971 21.4598 9.21404 21.4225 9.59204C21.3852 9.96971 21.2212 10.2832 20.9305 10.5325L19.9165 11.4465C20.0912 12.0582 20.1785 12.678 20.1785 13.306C20.1785 13.934 20.0912 14.5665 19.9165 15.2035L20.9305 16.1295C21.2132 16.3789 21.3752 16.684 21.4165 17.045C21.4578 17.4064 21.3912 17.745 21.2165 18.061L20.9425 18.495C20.7598 18.82 20.4898 19.0449 20.1325 19.1695C19.7752 19.2942 19.422 19.2859 19.073 19.1445L18.0085 18.7185C17.5658 19.2105 17.0575 19.6007 16.4835 19.889C15.9092 20.177 15.2985 20.4049 14.6515 20.5725L14.5165 21.669C14.4418 22.07 14.2608 22.4035 13.9735 22.6695C13.6862 22.9355 13.3455 23.0685 12.9515 23.0685H12.504C12.11 23.0685 11.7695 22.9374 11.4825 22.675C11.1955 22.413 11.0192 22.083 10.9535 21.685L10.819 20.5735ZM12.7255 17.8535C13.9732 17.8535 15.0413 17.4117 15.93 16.528C16.8187 15.6447 17.263 14.5774 17.263 13.326C17.263 12.0747 16.8188 11.007 15.9305 10.123C15.0422 9.23871 13.9728 8.79654 12.7225 8.79654C11.4718 8.79654 10.4045 9.24004 9.52049 10.127C8.63649 11.0137 8.19449 12.081 8.19449 13.329C8.19449 14.577 8.63765 15.643 9.52398 16.527C10.4107 17.4114 11.4778 17.8535 12.7255 17.8535ZM31.5715 43.425C30.6238 43.1917 29.7217 42.8297 28.865 42.339C28.0087 41.8487 27.2685 41.2129 26.6445 40.4315L25.3445 40.8435C24.9445 40.9769 24.5425 40.9705 24.1385 40.8245C23.7345 40.6785 23.4212 40.4195 23.1985 40.0475L22.7905 39.3515C22.5598 38.9795 22.4778 38.5779 22.5445 38.1465C22.6112 37.7152 22.8112 37.3502 23.1445 37.0515L24.1445 36.1555C23.8538 35.2409 23.7085 34.297 23.7085 33.324C23.7085 32.3507 23.8538 31.4109 24.1445 30.5045L23.1445 29.6545C22.8112 29.3879 22.6112 29.0315 22.5445 28.5855C22.4778 28.1395 22.5618 27.7307 22.7965 27.359L23.2485 26.6005C23.4458 26.2365 23.7362 25.9879 24.1195 25.8545C24.5028 25.7212 24.8945 25.7045 25.2945 25.8045L26.6445 26.1665C27.3018 25.4185 28.0503 24.7929 28.89 24.2895C29.73 23.7865 30.6257 23.431 31.577 23.223L31.9235 21.773C32.0222 21.373 32.2298 21.0397 32.5465 20.773C32.8632 20.5064 33.2382 20.373 33.6715 20.373H34.5715C35.0048 20.373 35.3882 20.5064 35.7215 20.773C36.0548 21.0397 36.2715 21.373 36.3715 21.773L36.7215 23.223C37.7282 23.3644 38.6432 23.6969 39.4665 24.2205C40.2895 24.7445 41.0297 25.3932 41.687 26.1665L43.037 25.8045C43.445 25.7045 43.8407 25.7295 44.224 25.8795C44.6073 26.0295 44.8977 26.2879 45.095 26.6545L45.541 27.3545C45.7717 27.7212 45.8453 28.1212 45.762 28.5545C45.6786 28.9879 45.4703 29.3545 45.137 29.6545L44.187 30.5045C44.4776 31.4109 44.623 32.3507 44.623 33.324C44.623 34.297 44.4776 35.2409 44.187 36.1555L45.187 37.0475C45.5203 37.3449 45.7203 37.7102 45.787 38.1435C45.8537 38.5769 45.7717 38.9782 45.541 39.3475L45.145 40.0515C44.9143 40.4209 44.597 40.6869 44.193 40.8495C43.789 41.0122 43.3703 41.0102 42.937 40.8435L41.687 40.4315C41.063 41.2462 40.3248 41.8904 39.4725 42.364C38.6198 42.838 37.7028 43.1917 36.7215 43.425L36.3715 44.875C36.2715 45.275 36.0632 45.6084 35.7465 45.875C35.4298 46.1417 35.0548 46.275 34.6215 46.275H33.7215C33.2882 46.275 32.9048 46.1417 32.5715 45.875C32.2382 45.6084 32.0215 45.275 31.9215 44.875L31.5715 43.425ZM34.166 40.1665C36.0713 40.1665 37.687 39.5022 39.013 38.1735C40.339 36.8449 41.002 35.229 41.002 33.326C41.002 31.423 40.3386 29.8065 39.012 28.4765C37.6853 27.1465 36.0718 26.4815 34.1715 26.4815C32.2622 26.4815 30.6445 27.146 29.3185 28.475C27.9925 29.8044 27.3295 31.4207 27.3295 33.324C27.3295 35.2334 27.9925 36.851 29.3185 38.177C30.6445 39.5034 32.2603 40.1665 34.166 40.1665Z" fill="#01010A"/>
</svg>
