<svg width="16" height="16" viewBox="0 0 16 16" fill="none" xmlns="http://www.w3.org/2000/svg">
<path d="M1.06084 10.9697V9.2964C1.06084 8.89017 1.16645 8.52034 1.37767 8.1869C1.58878 7.85356 1.87956 7.60634 2.25 7.44523C2.92467 7.15101 3.61534 6.90878 4.322 6.71856C5.02867 6.52834 5.75417 6.43323 6.4985 6.43323C7.07561 6.43323 7.64534 6.49156 8.20767 6.60823C8.77 6.72489 9.31911 6.88323 9.855 7.08323C9.71156 7.22134 9.578 7.36695 9.45434 7.52006C9.33078 7.67306 9.22378 7.83662 9.13334 8.01073C8.70789 7.86084 8.275 7.75034 7.83467 7.67923C7.39434 7.60823 6.94823 7.57273 6.49634 7.57273C5.83334 7.57273 5.1865 7.65473 4.55584 7.81873C3.92517 7.98273 3.31778 8.19406 2.73367 8.45273C2.56434 8.5294 2.43311 8.64556 2.34 8.80123C2.24689 8.95701 2.20034 9.12706 2.20034 9.3114V9.83423H8.54384C8.53006 10.0249 8.53206 10.2148 8.54984 10.4041C8.56762 10.5933 8.59556 10.7818 8.63367 10.9697H1.06084ZM6.49584 5.41656C5.78117 5.41656 5.17756 5.17023 4.685 4.67756C4.19234 4.1849 3.946 3.58128 3.946 2.86673C3.946 2.15206 4.19211 1.54845 4.68434 1.0559C5.17645 0.563228 5.78095 0.316895 6.49784 0.316895C7.21117 0.316895 7.81412 0.563005 8.30667 1.05523C8.79934 1.54734 9.04567 2.15184 9.04567 2.86873C9.04567 3.58195 8.79934 4.1849 8.30667 4.67756C7.81412 5.17023 7.2105 5.41656 6.49584 5.41656ZM6.49534 4.32489C6.90589 4.32489 7.25167 4.18484 7.53267 3.90473C7.81356 3.62473 7.954 3.27984 7.954 2.87006C7.954 2.46017 7.81389 2.11412 7.53367 1.83189C7.25356 1.54967 6.9085 1.40856 6.4985 1.40856C6.08739 1.40856 5.74117 1.54945 5.45984 1.83123C5.17839 2.11312 5.03767 2.45895 5.03767 2.86873C5.03767 3.27851 5.17795 3.62367 5.4585 3.90423C5.73917 4.18467 6.08478 4.32489 6.49534 4.32489ZM12.6413 2.86873C12.6413 3.57939 12.3944 4.18167 11.9005 4.67556C11.4067 5.16956 10.804 5.41656 10.0923 5.41656C9.946 5.41656 9.8075 5.41034 9.67684 5.39789C9.54617 5.38545 9.40884 5.35012 9.26484 5.29189C9.57017 4.96656 9.78461 4.59178 9.90817 4.16756C10.0317 3.74334 10.0935 3.31045 10.0935 2.86889C10.0935 2.42745 10.0262 1.99717 9.8915 1.57806C9.75684 1.15906 9.54795 0.780228 9.26484 0.441561C9.40084 0.390228 9.5355 0.356617 9.66884 0.340728C9.80217 0.324839 9.94478 0.316895 10.0967 0.316895C10.8044 0.316895 11.4055 0.563616 11.8998 1.05706C12.3942 1.55062 12.6413 2.15451 12.6413 2.86873ZM12.7563 13.3861C11.8647 13.3861 11.1042 13.0708 10.475 12.4404C9.84578 11.81 9.53117 11.0475 9.53117 10.1531C9.53117 9.25662 9.84639 8.49323 10.4768 7.8629C11.1073 7.23245 11.8697 6.91723 12.7642 6.91723C13.6606 6.91723 14.424 7.23223 15.0543 7.86223C15.6848 8.49234 16 9.25856 16 10.1609C16 11.0526 15.685 11.813 15.055 12.4422C14.4249 13.0715 13.6587 13.3861 12.7563 13.3861ZM12.1362 11.5622L14.4095 9.28106L14.0155 8.89123L12.1322 10.7746L11.1988 9.82456L10.805 10.2184L12.1362 11.5622Z" fill="#01010A"/>
</svg>
