<svg width="16" height="16" viewBox="0 0 16 16" fill="none" xmlns="http://www.w3.org/2000/svg">
<path d="M8.0035 14.7662C7.06761 14.7662 6.18828 14.5885 5.3655 14.2332C4.54283 13.8778 3.82611 13.3952 3.21533 12.7853C2.60455 12.1755 2.12161 11.4594 1.7665 10.637C1.41128 9.81455 1.23367 8.93555 1.23367 7.99999C1.23367 7.06433 1.41128 6.18527 1.7665 5.36283C2.12161 4.54038 2.60455 3.82421 3.21533 3.21433C3.82611 2.60444 4.543 2.12116 5.366 1.76449C6.18889 1.40783 7.06839 1.22949 8.0045 1.22949C8.94072 1.22949 9.81961 1.40783 10.6412 1.76449C11.4628 2.12116 12.1788 2.60416 12.789 3.21349C13.3992 3.82271 13.882 4.53871 14.2373 5.36149C14.5927 6.18416 14.7703 7.06344 14.7703 7.99933C14.7703 8.93521 14.5928 9.81449 14.2377 10.6372C13.8827 11.4599 13.3999 12.1764 12.7893 12.7865C12.1787 13.3967 11.4623 13.8792 10.6403 14.234C9.81822 14.5888 8.93928 14.7662 8.0035 14.7662ZM5.99933 13.3013L7.01733 10.865C6.59244 10.7205 6.214 10.488 5.882 10.1673C5.54989 9.84677 5.30083 9.45738 5.13483 8.99916L2.6945 9.96716C3.03894 10.7508 3.49317 11.4302 4.05717 12.0053C4.62128 12.5804 5.26867 13.0124 5.99933 13.3013ZM5.11817 7.01316C5.29061 6.55238 5.54061 6.16021 5.86817 5.83666C6.19572 5.5131 6.57322 5.27777 7.00067 5.13066L6.02467 2.69432C5.194 3.03877 4.49244 3.50133 3.92 4.08199C3.34744 4.66277 2.93894 5.31849 2.6945 6.04916L5.11817 7.01316ZM7.99933 9.89616C8.52778 9.89616 8.97672 9.71238 9.34617 9.34483C9.71561 8.97716 9.90033 8.52905 9.90033 8.00049C9.90033 7.47205 9.71561 7.0231 9.34617 6.65366C8.97672 6.28421 8.52778 6.09949 7.99933 6.09949C7.47078 6.09949 7.02267 6.28421 6.655 6.65366C6.28744 7.0231 6.10367 7.47205 6.10367 8.00049C6.10367 8.52905 6.28744 8.97716 6.655 9.34483C7.02267 9.71238 7.47078 9.89616 7.99933 9.89616ZM10.0007 13.3013C10.7647 12.9929 11.4293 12.5532 11.9947 11.9823C12.5601 11.4114 12.9971 10.7495 13.3055 9.99649L10.8652 8.99916C10.6985 9.47105 10.4499 9.86599 10.1195 10.184C9.78905 10.502 9.41011 10.729 8.98267 10.865L10.0007 13.3013ZM10.8652 7.00049L13.3055 5.99916C12.9966 5.24527 12.5564 4.58388 11.9848 4.01499C11.4133 3.4461 10.7519 3.00588 10.0007 2.69432L9.016 5.13066C9.44433 5.27444 9.81533 5.5066 10.129 5.82716C10.4428 6.14771 10.6882 6.53883 10.8652 7.00049Z" fill="#01010A"/>
</svg>
